{
	"asset":{
		"generator":"Khronos glTF Blender I/O v4.0.44",
		"version":"2.0"
	},
	"scene":0,
	"scenes":[
		{
			"name":"Scene",
			"nodes":[
				0,
				1,
				2,
				3,
				4,
				5,
				6,
				7,
				8,
				9,
				10,
				11,
				12,
				13,
				14,
				15,
				16
			]
		}
	],
	"nodes":[
		{
			"mesh":0,
			"name":"blockBarBottom1",
			"rotation":[
				0,
				0.7071067094802856,
				0,
				0.7071068286895752
			],
			"translation":[
				2.9499969482421875,
				0.75,
				0
			]
		},
		{
			"mesh":1,
			"name":"blockBarBottom1A",
			"translation":[
				2.9499969482421875,
				0.75,
				0
			]
		},
		{
			"mesh":2,
			"name":"blockBarBottom2",
			"rotation":[
				0,
				0.7071067094802856,
				0,
				0.7071068286895752
			],
			"translation":[
				-2.9499969482421875,
				0.75,
				0
			]
		},
		{
			"mesh":3,
			"name":"blockBarBottom2A",
			"rotation":[
				0,
				0,
				1,
				7.549790126404332e-08
			],
			"translation":[
				-2.9499969482421875,
				0.75,
				0
			]
		},
		{
			"mesh":4,
			"name":"blockBarMiddle1",
			"translation":[
				2.9499969482421875,
				8,
				0
			]
		},
		{
			"mesh":2,
			"name":"blockBarMiddle1A",
			"rotation":[
				-0.7071068286895752,
				0,
				0.7071067094802856,
				5.338507591545749e-08
			],
			"translation":[
				2.9499969482421875,
				7.999999046325684,
				0
			]
		},
		{
			"mesh":0,
			"name":"blockBarMiddle2",
			"rotation":[
				-0.7071068286895752,
				0,
				0.7071067094802856,
				5.338507591545749e-08
			],
			"translation":[
				-2.9499969482421875,
				8,
				0
			]
		},
		{
			"mesh":4,
			"name":"blockBarMiddle2A",
			"rotation":[
				0,
				0,
				1,
				7.549790126404332e-08
			],
			"translation":[
				-2.9499969482421875,
				8,
				0
			]
		},
		{
			"mesh":3,
			"name":"blockBarTop1",
			"translation":[
				2.9499969482421875,
				15.25,
				0
			]
		},
		{
			"mesh":2,
			"name":"blockBarTop1A",
			"rotation":[
				-0.7071068286895752,
				0,
				0.7071067094802856,
				5.338507591545749e-08
			],
			"translation":[
				2.9499969482421875,
				15.249999046325684,
				0
			]
		},
		{
			"mesh":0,
			"name":"blockBarTop2",
			"rotation":[
				-0.7071068286895752,
				0,
				0.7071067094802856,
				5.338507591545749e-08
			],
			"translation":[
				-2.9499969482421875,
				15.25,
				0
			]
		},
		{
			"mesh":1,
			"name":"blockBarTop2A",
			"rotation":[
				0,
				0,
				1,
				7.549790126404332e-08
			],
			"translation":[
				-2.9499969482421875,
				15.25,
				0
			]
		},
		{
			"mesh":5,
			"name":"blockShelfBottom",
			"rotation":[
				0,
				0.7071067094802856,
				0,
				0.7071068286895752
			],
			"translation":[
				0,
				0.75,
				0
			]
		},
		{
			"mesh":5,
			"name":"blockShelfMiddle",
			"rotation":[
				-0.7071068286895752,
				0,
				0.7071067094802856,
				5.338507591545749e-08
			],
			"translation":[
				0,
				7.999999523162842,
				0
			]
		},
		{
			"mesh":5,
			"name":"blockShelfTop",
			"rotation":[
				-0.7071068286895752,
				0,
				0.7071067094802856,
				5.338507591545749e-08
			],
			"translation":[
				0,
				15.25,
				0
			]
		},
		{
			"mesh":6,
			"name":"blockSide1",
			"translation":[
				3,
				8,
				0
			]
		},
		{
			"mesh":6,
			"name":"blockSide2",
			"rotation":[
				0,
				0,
				1,
				7.549790126404332e-08
			],
			"translation":[
				-3,
				8,
				0
			]
		}
	],
	"materials":[
		{
			"doubleSided":true,
			"name":"Material",
			"pbrMetallicRoughness":{
				"baseColorFactor":[
					0.800000011920929,
					0.800000011920929,
					0.800000011920929,
					1
				],
				"metallicFactor":0,
				"roughnessFactor":0.5
			}
		}
	],
	"meshes":[
		{
			"name":"ID196",
			"primitives":[
				{
					"attributes":{
						"POSITION":0,
						"NORMAL":1,
						"TEXCOORD_0":2
					},
					"indices":3,
					"material":0
				}
			]
		},
		{
			"name":"ID170",
			"primitives":[
				{
					"attributes":{
						"POSITION":4,
						"NORMAL":5,
						"TEXCOORD_0":6
					},
					"indices":3,
					"material":0
				}
			]
		},
		{
			"name":"ID190",
			"primitives":[
				{
					"attributes":{
						"POSITION":7,
						"NORMAL":8,
						"TEXCOORD_0":9
					},
					"indices":3,
					"material":0
				}
			]
		},
		{
			"name":"ID164",
			"primitives":[
				{
					"attributes":{
						"POSITION":10,
						"NORMAL":11,
						"TEXCOORD_0":12
					},
					"indices":3,
					"material":0
				}
			]
		},
		{
			"name":"ID158",
			"primitives":[
				{
					"attributes":{
						"POSITION":13,
						"NORMAL":14,
						"TEXCOORD_0":15
					},
					"indices":3,
					"material":0
				}
			]
		},
		{
			"name":"ID184",
			"primitives":[
				{
					"attributes":{
						"POSITION":16,
						"NORMAL":17,
						"TEXCOORD_0":18
					},
					"indices":19,
					"material":0
				}
			]
		},
		{
			"name":"ID176",
			"primitives":[
				{
					"attributes":{
						"POSITION":20,
						"NORMAL":21,
						"TEXCOORD_0":22
					},
					"indices":23,
					"material":0
				}
			]
		}
	],
	"accessors":[
		{
			"bufferView":0,
			"componentType":5126,
			"count":20,
			"max":[
				3.5,
				0.25,
				0.30000001192092896
			],
			"min":[
				-3.5,
				-0.25,
				-0.44999998807907104
			],
			"type":"VEC3"
		},
		{
			"bufferView":1,
			"componentType":5126,
			"count":20,
			"type":"VEC3"
		},
		{
			"bufferView":2,
			"componentType":5126,
			"count":20,
			"type":"VEC2"
		},
		{
			"bufferView":3,
			"componentType":5123,
			"count":30,
			"type":"SCALAR"
		},
		{
			"bufferView":4,
			"componentType":5126,
			"count":20,
			"max":[
				0.29999998211860657,
				0.25,
				3.5
			],
			"min":[
				-0.45000001788139343,
				-0.25,
				-3.5
			],
			"type":"VEC3"
		},
		{
			"bufferView":5,
			"componentType":5126,
			"count":20,
			"type":"VEC3"
		},
		{
			"bufferView":6,
			"componentType":5126,
			"count":20,
			"type":"VEC2"
		},
		{
			"bufferView":7,
			"componentType":5126,
			"count":20,
			"max":[
				3.5,
				0.25,
				0.4500002861022949
			],
			"min":[
				-3.5,
				-0.25,
				-0.2999997138977051
			],
			"type":"VEC3"
		},
		{
			"bufferView":8,
			"componentType":5126,
			"count":20,
			"type":"VEC3"
		},
		{
			"bufferView":9,
			"componentType":5126,
			"count":20,
			"type":"VEC2"
		},
		{
			"bufferView":10,
			"componentType":5126,
			"count":20,
			"max":[
				0.29999998211860657,
				0.25,
				3.5
			],
			"min":[
				-0.45000001788139343,
				-0.25,
				-3.5
			],
			"type":"VEC3"
		},
		{
			"bufferView":11,
			"componentType":5126,
			"count":20,
			"type":"VEC3"
		},
		{
			"bufferView":12,
			"componentType":5126,
			"count":20,
			"type":"VEC2"
		},
		{
			"bufferView":13,
			"componentType":5126,
			"count":20,
			"max":[
				0.29999998211860657,
				0.25,
				3.5
			],
			"min":[
				-0.45000001788139343,
				-0.25,
				-3.5
			],
			"type":"VEC3"
		},
		{
			"bufferView":14,
			"componentType":5126,
			"count":20,
			"type":"VEC3"
		},
		{
			"bufferView":15,
			"componentType":5126,
			"count":20,
			"type":"VEC2"
		},
		{
			"bufferView":16,
			"componentType":5126,
			"count":32,
			"max":[
				4,
				0.75,
				2.5
			],
			"min":[
				-4,
				-0.75,
				-2.5
			],
			"type":"VEC3"
		},
		{
			"bufferView":17,
			"componentType":5126,
			"count":32,
			"type":"VEC3"
		},
		{
			"bufferView":18,
			"componentType":5126,
			"count":32,
			"type":"VEC2"
		},
		{
			"bufferView":19,
			"componentType":5123,
			"count":72,
			"type":"SCALAR"
		},
		{
			"bufferView":20,
			"componentType":5126,
			"count":42,
			"max":[
				1,
				8,
				4
			],
			"min":[
				-0.5,
				-8,
				-4
			],
			"type":"VEC3"
		},
		{
			"bufferView":21,
			"componentType":5126,
			"count":42,
			"type":"VEC3"
		},
		{
			"bufferView":22,
			"componentType":5126,
			"count":42,
			"type":"VEC2"
		},
		{
			"bufferView":23,
			"componentType":5123,
			"count":90,
			"type":"SCALAR"
		}
	],
	"bufferViews":[
		{
			"buffer":0,
			"byteLength":240,
			"byteOffset":0,
			"target":34962
		},
		{
			"buffer":0,
			"byteLength":240,
			"byteOffset":240,
			"target":34962
		},
		{
			"buffer":0,
			"byteLength":160,
			"byteOffset":480,
			"target":34962
		},
		{
			"buffer":0,
			"byteLength":60,
			"byteOffset":640,
			"target":34963
		},
		{
			"buffer":0,
			"byteLength":240,
			"byteOffset":700,
			"target":34962
		},
		{
			"buffer":0,
			"byteLength":240,
			"byteOffset":940,
			"target":34962
		},
		{
			"buffer":0,
			"byteLength":160,
			"byteOffset":1180,
			"target":34962
		},
		{
			"buffer":0,
			"byteLength":240,
			"byteOffset":1340,
			"target":34962
		},
		{
			"buffer":0,
			"byteLength":240,
			"byteOffset":1580,
			"target":34962
		},
		{
			"buffer":0,
			"byteLength":160,
			"byteOffset":1820,
			"target":34962
		},
		{
			"buffer":0,
			"byteLength":240,
			"byteOffset":1980,
			"target":34962
		},
		{
			"buffer":0,
			"byteLength":240,
			"byteOffset":2220,
			"target":34962
		},
		{
			"buffer":0,
			"byteLength":160,
			"byteOffset":2460,
			"target":34962
		},
		{
			"buffer":0,
			"byteLength":240,
			"byteOffset":2620,
			"target":34962
		},
		{
			"buffer":0,
			"byteLength":240,
			"byteOffset":2860,
			"target":34962
		},
		{
			"buffer":0,
			"byteLength":160,
			"byteOffset":3100,
			"target":34962
		},
		{
			"buffer":0,
			"byteLength":384,
			"byteOffset":3260,
			"target":34962
		},
		{
			"buffer":0,
			"byteLength":384,
			"byteOffset":3644,
			"target":34962
		},
		{
			"buffer":0,
			"byteLength":256,
			"byteOffset":4028,
			"target":34962
		},
		{
			"buffer":0,
			"byteLength":144,
			"byteOffset":4284,
			"target":34963
		},
		{
			"buffer":0,
			"byteLength":504,
			"byteOffset":4428,
			"target":34962
		},
		{
			"buffer":0,
			"byteLength":504,
			"byteOffset":4932,
			"target":34962
		},
		{
			"buffer":0,
			"byteLength":336,
			"byteOffset":5436,
			"target":34962
		},
		{
			"buffer":0,
			"byteLength":180,
			"byteOffset":5772,
			"target":34963
		}
	],
	"buffers":[
		{
			"byteLength":5952,
			"uri":"block.bin"
		}
	]
}
