{
	"asset":{
		"generator":"Khronos glTF Blender I/O v4.0.44",
		"version":"2.0"
	},
	"scene":0,
	"scenes":[
		{
			"name":"Scene",
			"nodes":[
				0,
				1,
				2,
				3,
				4,
				5,
				6,
				7,
				8,
				9,
				10,
				11
			]
		}
	],
	"nodes":[
		{
			"mesh":0,
			"name":"grampsBarBottom",
			"translation":[
				-0.00024849065812304616,
				15.428571701049805,
				0.0001947055570781231
			]
		},
		{
			"mesh":0,
			"name":"grampsBarTop",
			"rotation":[
				0.7071068286895752,
				0,
				-0.7071067094802856,
				5.338507591545749e-08
			],
			"translation":[
				-0.00024849065812304616,
				15.571429252624512,
				0.0001947055570781231
			]
		},
		{
			"mesh":1,
			"name":"grampsBlockA",
			"translation":[
				-0.041912611573934555,
				17,
				6.053959369659424
			]
		},
		{
			"mesh":2,
			"name":"grampsBlockB",
			"translation":[
				-6.187740802764893,
				16.950000762939453,
				-0.01935180276632309
			]
		},
		{
			"mesh":3,
			"name":"grampsBlockC",
			"translation":[
				-0.00024086126359179616,
				16.950000762939453,
				-6.206843852996826
			]
		},
		{
			"mesh":4,
			"name":"grampsBlockD",
			"translation":[
				6.187259197235107,
				16.950000762939453,
				-0.01935180276632309
			]
		},
		{
			"mesh":5,
			"name":"grampsLegA",
			"rotation":[
				0,
				1,
				0,
				7.549790126404332e-08
			],
			"translation":[
				0.011363447643816471,
				10.106405258178711,
				6.532162189483643
			]
		},
		{
			"mesh":5,
			"name":"grampsLegB",
			"rotation":[
				0,
				0.7071067094802856,
				0,
				0.7071068286895752
			],
			"translation":[
				-6.532215595245361,
				10.106405258178711,
				0.011806643567979336
			]
		},
		{
			"mesh":5,
			"name":"grampsLegC",
			"translation":[
				-0.011860429309308529,
				10.106405258178711,
				-6.531772136688232
			]
		},
		{
			"mesh":5,
			"name":"grampsLegD",
			"rotation":[
				0,
				-0.7071067094802856,
				0,
				0.7071068286895752
			],
			"translation":[
				6.531718730926514,
				10.106405258178711,
				-0.011417233385145664
			]
		},
		{
			"mesh":6,
			"name":"grampsTopBody",
			"translation":[
				0.017299117520451546,
				17.10236167907715,
				-0.44128021597862244
			]
		},
		{
			"mesh":7,
			"name":"grampsTopPanel",
			"translation":[
				0.035113755613565445,
				18,
				-0.8579901456832886
			]
		}
	],
	"materials":[
		{
			"doubleSided":true,
			"name":"Material",
			"pbrMetallicRoughness":{
				"baseColorFactor":[
					0.800000011920929,
					0.800000011920929,
					0.800000011920929,
					1
				],
				"metallicFactor":0,
				"roughnessFactor":0.5
			}
		}
	],
	"meshes":[
		{
			"name":"ID15",
			"primitives":[
				{
					"attributes":{
						"POSITION":0,
						"NORMAL":1,
						"TEXCOORD_0":2
					},
					"indices":3,
					"material":0
				}
			]
		},
		{
			"name":"ID42",
			"primitives":[
				{
					"attributes":{
						"POSITION":4,
						"NORMAL":5,
						"TEXCOORD_0":6
					},
					"indices":7,
					"material":0
				}
			]
		},
		{
			"name":"ID36",
			"primitives":[
				{
					"attributes":{
						"POSITION":8,
						"NORMAL":9,
						"TEXCOORD_0":10
					},
					"indices":11,
					"material":0
				}
			]
		},
		{
			"name":"ID30",
			"primitives":[
				{
					"attributes":{
						"POSITION":12,
						"NORMAL":13,
						"TEXCOORD_0":14
					},
					"indices":11,
					"material":0
				}
			]
		},
		{
			"name":"ID24",
			"primitives":[
				{
					"attributes":{
						"POSITION":15,
						"NORMAL":16,
						"TEXCOORD_0":17
					},
					"indices":11,
					"material":0
				}
			]
		},
		{
			"name":"ID5",
			"primitives":[
				{
					"attributes":{
						"POSITION":18,
						"NORMAL":19,
						"TEXCOORD_0":20
					},
					"indices":21,
					"material":0
				}
			]
		},
		{
			"name":"ID48",
			"primitives":[
				{
					"attributes":{
						"POSITION":22,
						"NORMAL":23,
						"TEXCOORD_0":24
					},
					"indices":25,
					"material":0
				}
			]
		},
		{
			"name":"ID54",
			"primitives":[
				{
					"attributes":{
						"POSITION":26,
						"NORMAL":27,
						"TEXCOORD_0":28
					},
					"indices":29,
					"material":0
				}
			]
		}
	],
	"accessors":[
		{
			"bufferView":0,
			"componentType":5126,
			"count":180,
			"max":[
				0.75,
				1.0714285373687744,
				5.5
			],
			"min":[
				-0.75,
				-0.9285714626312256,
				-5.5
			],
			"type":"VEC3"
		},
		{
			"bufferView":1,
			"componentType":5126,
			"count":180,
			"type":"VEC3"
		},
		{
			"bufferView":2,
			"componentType":5126,
			"count":180,
			"type":"VEC2"
		},
		{
			"bufferView":3,
			"componentType":5123,
			"count":324,
			"type":"SCALAR"
		},
		{
			"bufferView":4,
			"componentType":5126,
			"count":24,
			"max":[
				0.29166698455810547,
				0.25,
				0.8641923069953918
			],
			"min":[
				-0.20833301544189453,
				-0.5,
				-0.6358072757720947
			],
			"type":"VEC3"
		},
		{
			"bufferView":5,
			"componentType":5126,
			"count":24,
			"type":"VEC3"
		},
		{
			"bufferView":6,
			"componentType":5126,
			"count":24,
			"type":"VEC2"
		},
		{
			"bufferView":7,
			"componentType":5123,
			"count":42,
			"type":"SCALAR"
		},
		{
			"bufferView":8,
			"componentType":5126,
			"count":20,
			"max":[
				0.75,
				0.29999998211860657,
				0.2500004768371582
			],
			"min":[
				-0.7499995827674866,
				-0.45000001788139343,
				-0.2499995231628418
			],
			"type":"VEC3"
		},
		{
			"bufferView":9,
			"componentType":5126,
			"count":20,
			"type":"VEC3"
		},
		{
			"bufferView":10,
			"componentType":5126,
			"count":20,
			"type":"VEC2"
		},
		{
			"bufferView":11,
			"componentType":5123,
			"count":30,
			"type":"SCALAR"
		},
		{
			"bufferView":12,
			"componentType":5126,
			"count":20,
			"max":[
				0.2499995231628418,
				0.29999998211860657,
				0.7499980926513672
			],
			"min":[
				-0.2500004768371582,
				-0.45000001788139343,
				-0.7500019073486328
			],
			"type":"VEC3"
		},
		{
			"bufferView":13,
			"componentType":5126,
			"count":20,
			"type":"VEC3"
		},
		{
			"bufferView":14,
			"componentType":5126,
			"count":20,
			"type":"VEC2"
		},
		{
			"bufferView":15,
			"componentType":5126,
			"count":20,
			"max":[
				0.75,
				0.29999998211860657,
				0.2500004768371582
			],
			"min":[
				-0.75,
				-0.45000001788139343,
				-0.2499995231628418
			],
			"type":"VEC3"
		},
		{
			"bufferView":16,
			"componentType":5126,
			"count":20,
			"type":"VEC3"
		},
		{
			"bufferView":17,
			"componentType":5126,
			"count":20,
			"type":"VEC2"
		},
		{
			"bufferView":18,
			"componentType":5126,
			"count":230,
			"max":[
				0.7616150379180908,
				7.143594741821289,
				2.031965732574463
			],
			"min":[
				-0.7383849620819092,
				-10.106405258178711,
				-1.9366123676300049
			],
			"type":"VEC3"
		},
		{
			"bufferView":19,
			"componentType":5126,
			"count":230,
			"type":"VEC3"
		},
		{
			"bufferView":20,
			"componentType":5126,
			"count":230,
			"type":"VEC2"
		},
		{
			"bufferView":21,
			"componentType":5123,
			"count":414,
			"type":"SCALAR"
		},
		{
			"bufferView":22,
			"componentType":5126,
			"count":133,
			"max":[
				7.717737674713135,
				0.8976377844810486,
				8.157209396362305
			],
			"min":[
				-7.752822399139404,
				-0.6023622155189514,
				-7.313350677490234
			],
			"type":"VEC3"
		},
		{
			"bufferView":23,
			"componentType":5126,
			"count":133,
			"type":"VEC3"
		},
		{
			"bufferView":24,
			"componentType":5126,
			"count":133,
			"type":"VEC2"
		},
		{
			"bufferView":25,
			"componentType":5123,
			"count":255,
			"type":"SCALAR"
		},
		{
			"bufferView":26,
			"componentType":5126,
			"count":18,
			"max":[
				7.512423515319824,
				0,
				8.386422157287598
			],
			"min":[
				-7.583136558532715,
				0,
				-6.709137916564941
			],
			"type":"VEC3"
		},
		{
			"bufferView":27,
			"componentType":5126,
			"count":18,
			"type":"VEC3"
		},
		{
			"bufferView":28,
			"componentType":5126,
			"count":18,
			"type":"VEC2"
		},
		{
			"bufferView":29,
			"componentType":5123,
			"count":42,
			"type":"SCALAR"
		}
	],
	"bufferViews":[
		{
			"buffer":0,
			"byteLength":2160,
			"byteOffset":0,
			"target":34962
		},
		{
			"buffer":0,
			"byteLength":2160,
			"byteOffset":2160,
			"target":34962
		},
		{
			"buffer":0,
			"byteLength":1440,
			"byteOffset":4320,
			"target":34962
		},
		{
			"buffer":0,
			"byteLength":648,
			"byteOffset":5760,
			"target":34963
		},
		{
			"buffer":0,
			"byteLength":288,
			"byteOffset":6408,
			"target":34962
		},
		{
			"buffer":0,
			"byteLength":288,
			"byteOffset":6696,
			"target":34962
		},
		{
			"buffer":0,
			"byteLength":192,
			"byteOffset":6984,
			"target":34962
		},
		{
			"buffer":0,
			"byteLength":84,
			"byteOffset":7176,
			"target":34963
		},
		{
			"buffer":0,
			"byteLength":240,
			"byteOffset":7260,
			"target":34962
		},
		{
			"buffer":0,
			"byteLength":240,
			"byteOffset":7500,
			"target":34962
		},
		{
			"buffer":0,
			"byteLength":160,
			"byteOffset":7740,
			"target":34962
		},
		{
			"buffer":0,
			"byteLength":60,
			"byteOffset":7900,
			"target":34963
		},
		{
			"buffer":0,
			"byteLength":240,
			"byteOffset":7960,
			"target":34962
		},
		{
			"buffer":0,
			"byteLength":240,
			"byteOffset":8200,
			"target":34962
		},
		{
			"buffer":0,
			"byteLength":160,
			"byteOffset":8440,
			"target":34962
		},
		{
			"buffer":0,
			"byteLength":240,
			"byteOffset":8600,
			"target":34962
		},
		{
			"buffer":0,
			"byteLength":240,
			"byteOffset":8840,
			"target":34962
		},
		{
			"buffer":0,
			"byteLength":160,
			"byteOffset":9080,
			"target":34962
		},
		{
			"buffer":0,
			"byteLength":2760,
			"byteOffset":9240,
			"target":34962
		},
		{
			"buffer":0,
			"byteLength":2760,
			"byteOffset":12000,
			"target":34962
		},
		{
			"buffer":0,
			"byteLength":1840,
			"byteOffset":14760,
			"target":34962
		},
		{
			"buffer":0,
			"byteLength":828,
			"byteOffset":16600,
			"target":34963
		},
		{
			"buffer":0,
			"byteLength":1596,
			"byteOffset":17428,
			"target":34962
		},
		{
			"buffer":0,
			"byteLength":1596,
			"byteOffset":19024,
			"target":34962
		},
		{
			"buffer":0,
			"byteLength":1064,
			"byteOffset":20620,
			"target":34962
		},
		{
			"buffer":0,
			"byteLength":510,
			"byteOffset":21684,
			"target":34963
		},
		{
			"buffer":0,
			"byteLength":216,
			"byteOffset":22196,
			"target":34962
		},
		{
			"buffer":0,
			"byteLength":216,
			"byteOffset":22412,
			"target":34962
		},
		{
			"buffer":0,
			"byteLength":144,
			"byteOffset":22628,
			"target":34962
		},
		{
			"buffer":0,
			"byteLength":84,
			"byteOffset":22772,
			"target":34963
		}
	],
	"buffers":[
		{
			"byteLength":22856,
			"uri":"gramps.bin"
		}
	]
}
