{
	"asset":{
		"generator":"Khronos glTF Blender I/O v4.0.44",
		"version":"2.0"
	},
	"scene":0,
	"scenes":[
		{
			"name":"Scene",
			"nodes":[
				0,
				1,
				2,
				3
			]
		}
	],
	"nodes":[
		{
			"mesh":0,
			"name":"wooden_hammer_01",
			"translation":[
				0.0010599581291899085,
				-0.02741243503987789,
				0
			]
		},
		{
			"name":"Empty",
			"translation":[
				-0.05348645895719528,
				0.11457509547472,
				0
			]
		},
		{
			"name":"Empty.001",
			"translation":[
				0.0008743405342102051,
				-0.05531737208366394,
				0
			]
		},
		{
			"name":"Empty.002",
			"translation":[
				0.053527623414993286,
				0.08698708564043045,
				0
			]
		}
	],
	"materials":[
		{
			"doubleSided":true,
			"name":"Material",
			"pbrMetallicRoughness":{
				"baseColorFactor":[
					0.800000011920929,
					0.800000011920929,
					0.800000011920929,
					1
				],
				"metallicFactor":0,
				"roughnessFactor":0.5
			}
		}
	],
	"meshes":[
		{
			"name":"Cube.002",
			"primitives":[
				{
					"attributes":{
						"POSITION":0,
						"NORMAL":1,
						"TEXCOORD_0":2
					},
					"indices":3,
					"material":0
				}
			]
		}
	],
	"accessors":[
		{
			"bufferView":0,
			"componentType":5126,
			"count":3016,
			"max":[
				0.05776631832122803,
				0.155205637216568,
				0.01169908419251442
			],
			"min":[
				-0.05404520407319069,
				-0.12394478917121887,
				-0.01169908419251442
			],
			"type":"VEC3"
		},
		{
			"bufferView":1,
			"componentType":5126,
			"count":3016,
			"type":"VEC3"
		},
		{
			"bufferView":2,
			"componentType":5126,
			"count":3016,
			"type":"VEC2"
		},
		{
			"bufferView":3,
			"componentType":5123,
			"count":10851,
			"type":"SCALAR"
		}
	],
	"bufferViews":[
		{
			"buffer":0,
			"byteLength":36192,
			"byteOffset":0,
			"target":34962
		},
		{
			"buffer":0,
			"byteLength":36192,
			"byteOffset":36192,
			"target":34962
		},
		{
			"buffer":0,
			"byteLength":24128,
			"byteOffset":72384,
			"target":34962
		},
		{
			"buffer":0,
			"byteLength":21702,
			"byteOffset":96512,
			"target":34963
		}
	],
	"buffers":[
		{
			"byteLength":118216,
			"uri":"hammer.bin"
		}
	]
}
