{
	"asset":{
		"generator":"Khronos glTF Blender I/O v4.0.44",
		"version":"2.0"
	},
	"scene":0,
	"scenes":[
		{
			"name":"Scene",
			"nodes":[
				0,
				1,
				2,
				3,
				4,
				5
			]
		}
	],
	"nodes":[
		{
			"mesh":0,
			"name":"squatterBlockA",
			"translation":[
				0.0002161264419555664,
				14.69180965423584,
				7.255502700805664
			]
		},
		{
			"mesh":1,
			"name":"squatterBlockB",
			"translation":[
				0.0002161264419555664,
				14.69180965423584,
				-7.244497299194336
			]
		},
		{
			"mesh":2,
			"name":"squatterCenterPanel",
			"translation":[
				0.0002161264419555664,
				12.241809844970703,
				0.0055024996399879456
			]
		},
		{
			"mesh":3,
			"name":"squatterSideA",
			"rotation":[
				0,
				-1,
				0,
				7.549790126404332e-08
			],
			"translation":[
				0.2699075937271118,
				4.207938194274902,
				7.193048477172852
			]
		},
		{
			"mesh":3,
			"name":"squatterSideB",
			"translation":[
				-0.26946771144866943,
				4.207938194274902,
				-7.182043075561523
			]
		},
		{
			"mesh":4,
			"name":"squatterTopPanel",
			"translation":[
				-0.32973992824554443,
				14.788272857666016,
				-0.42073652148246765
			]
		}
	],
	"materials":[
		{
			"doubleSided":true,
			"name":"Material",
			"pbrMetallicRoughness":{
				"baseColorFactor":[
					0.800000011920929,
					0.800000011920929,
					0.800000011920929,
					1
				],
				"metallicFactor":0,
				"roughnessFactor":0.5
			}
		}
	],
	"meshes":[
		{
			"name":"ID100",
			"primitives":[
				{
					"attributes":{
						"POSITION":0,
						"NORMAL":1,
						"TEXCOORD_0":2
					},
					"indices":3,
					"material":0
				}
			]
		},
		{
			"name":"ID106",
			"primitives":[
				{
					"attributes":{
						"POSITION":4,
						"NORMAL":5,
						"TEXCOORD_0":6
					},
					"indices":3,
					"material":0
				}
			]
		},
		{
			"name":"ID145",
			"primitives":[
				{
					"attributes":{
						"POSITION":7,
						"NORMAL":8,
						"TEXCOORD_0":9
					},
					"indices":10,
					"material":0
				}
			]
		},
		{
			"name":"ID74",
			"primitives":[
				{
					"attributes":{
						"POSITION":11,
						"NORMAL":12,
						"TEXCOORD_0":13
					},
					"indices":14,
					"material":0
				}
			]
		},
		{
			"name":"ID82",
			"primitives":[
				{
					"attributes":{
						"POSITION":15,
						"NORMAL":16,
						"TEXCOORD_0":17
					},
					"indices":18,
					"material":0
				}
			]
		}
	],
	"accessors":[
		{
			"bufferView":0,
			"componentType":5126,
			"count":20,
			"max":[
				5.5,
				0.29999998211860657,
				0.25
			],
			"min":[
				-5.5,
				-0.45000001788139343,
				-0.25
			],
			"type":"VEC3"
		},
		{
			"bufferView":1,
			"componentType":5126,
			"count":20,
			"type":"VEC3"
		},
		{
			"bufferView":2,
			"componentType":5126,
			"count":20,
			"type":"VEC2"
		},
		{
			"bufferView":3,
			"componentType":5123,
			"count":30,
			"type":"SCALAR"
		},
		{
			"bufferView":4,
			"componentType":5126,
			"count":20,
			"max":[
				5.5,
				0.29999998211860657,
				0.25
			],
			"min":[
				-5.5,
				-0.45000001788139343,
				-0.25
			],
			"type":"VEC3"
		},
		{
			"bufferView":5,
			"componentType":5126,
			"count":20,
			"type":"VEC3"
		},
		{
			"bufferView":6,
			"componentType":5126,
			"count":20,
			"type":"VEC2"
		},
		{
			"bufferView":7,
			"componentType":5126,
			"count":182,
			"max":[
				0.7499998211860657,
				2,
				7.25
			],
			"min":[
				-0.7500001788139343,
				-2,
				-7.25
			],
			"type":"VEC3"
		},
		{
			"bufferView":8,
			"componentType":5126,
			"count":182,
			"type":"VEC3"
		},
		{
			"bufferView":9,
			"componentType":5126,
			"count":182,
			"type":"VEC2"
		},
		{
			"bufferView":10,
			"componentType":5123,
			"count":420,
			"type":"SCALAR"
		},
		{
			"bufferView":11,
			"componentType":5126,
			"count":391,
			"max":[
				6.269689559936523,
				10.783868789672852,
				0.6875433921813965
			],
			"min":[
				-5.730310440063477,
				-4.466131210327148,
				-0.8124566078186035
			],
			"type":"VEC3"
		},
		{
			"bufferView":12,
			"componentType":5126,
			"count":391,
			"type":"VEC3"
		},
		{
			"bufferView":13,
			"componentType":5126,
			"count":391,
			"type":"VEC2"
		},
		{
			"bufferView":14,
			"componentType":5123,
			"count":1386,
			"type":"SCALAR"
		},
		{
			"bufferView":15,
			"componentType":5126,
			"count":652,
			"max":[
				6.329958438873291,
				0.9535368084907532,
				8.426241874694824
			],
			"min":[
				-5.670041561126709,
				-0.5464631915092468,
				-7.573758125305176
			],
			"type":"VEC3"
		},
		{
			"bufferView":16,
			"componentType":5126,
			"count":652,
			"type":"VEC3"
		},
		{
			"bufferView":17,
			"componentType":5126,
			"count":652,
			"type":"VEC2"
		},
		{
			"bufferView":18,
			"componentType":5123,
			"count":2343,
			"type":"SCALAR"
		}
	],
	"bufferViews":[
		{
			"buffer":0,
			"byteLength":240,
			"byteOffset":0,
			"target":34962
		},
		{
			"buffer":0,
			"byteLength":240,
			"byteOffset":240,
			"target":34962
		},
		{
			"buffer":0,
			"byteLength":160,
			"byteOffset":480,
			"target":34962
		},
		{
			"buffer":0,
			"byteLength":60,
			"byteOffset":640,
			"target":34963
		},
		{
			"buffer":0,
			"byteLength":240,
			"byteOffset":700,
			"target":34962
		},
		{
			"buffer":0,
			"byteLength":240,
			"byteOffset":940,
			"target":34962
		},
		{
			"buffer":0,
			"byteLength":160,
			"byteOffset":1180,
			"target":34962
		},
		{
			"buffer":0,
			"byteLength":2184,
			"byteOffset":1340,
			"target":34962
		},
		{
			"buffer":0,
			"byteLength":2184,
			"byteOffset":3524,
			"target":34962
		},
		{
			"buffer":0,
			"byteLength":1456,
			"byteOffset":5708,
			"target":34962
		},
		{
			"buffer":0,
			"byteLength":840,
			"byteOffset":7164,
			"target":34963
		},
		{
			"buffer":0,
			"byteLength":4692,
			"byteOffset":8004,
			"target":34962
		},
		{
			"buffer":0,
			"byteLength":4692,
			"byteOffset":12696,
			"target":34962
		},
		{
			"buffer":0,
			"byteLength":3128,
			"byteOffset":17388,
			"target":34962
		},
		{
			"buffer":0,
			"byteLength":2772,
			"byteOffset":20516,
			"target":34963
		},
		{
			"buffer":0,
			"byteLength":7824,
			"byteOffset":23288,
			"target":34962
		},
		{
			"buffer":0,
			"byteLength":7824,
			"byteOffset":31112,
			"target":34962
		},
		{
			"buffer":0,
			"byteLength":5216,
			"byteOffset":38936,
			"target":34962
		},
		{
			"buffer":0,
			"byteLength":4686,
			"byteOffset":44152,
			"target":34963
		}
	],
	"buffers":[
		{
			"byteLength":48840,
			"uri":"squatter.bin"
		}
	]
}
