{
	"asset":{
		"generator":"Khronos glTF Blender I/O v4.0.44",
		"version":"2.0"
	},
	"scene":0,
	"scenes":[
		{
			"name":"Scene",
			"nodes":[
				0
			]
		}
	],
	"nodes":[
		{
			"mesh":0,
			"name":"shelfBShort",
			"rotation":[
				0,
				-0.7071067094802856,
				0,
				0.7071068286895752
			],
			"translation":[
				0.0021124640479683876,
				46.003013610839844,
				-3.249999761581421
			]
		}
	],
	"materials":[
		{
			"doubleSided":true,
			"name":"Material",
			"pbrMetallicRoughness":{
				"baseColorFactor":[
					0.800000011920929,
					0.800000011920929,
					0.800000011920929,
					1
				],
				"metallicFactor":0,
				"roughnessFactor":0.5
			}
		}
	],
	"meshes":[
		{
			"name":"ID241",
			"primitives":[
				{
					"attributes":{
						"POSITION":0,
						"NORMAL":1,
						"TEXCOORD_0":2
					},
					"indices":3,
					"material":0
				}
			]
		}
	],
	"accessors":[
		{
			"bufferView":0,
			"componentType":5126,
			"count":178,
			"max":[
				3.2497689723968506,
				1.99698805809021,
				7.999999523162842
			],
			"min":[
				-2.7502310276031494,
				-2.00301194190979,
				-8
			],
			"type":"VEC3"
		},
		{
			"bufferView":1,
			"componentType":5126,
			"count":178,
			"type":"VEC3"
		},
		{
			"bufferView":2,
			"componentType":5126,
			"count":178,
			"type":"VEC2"
		},
		{
			"bufferView":3,
			"componentType":5123,
			"count":420,
			"type":"SCALAR"
		}
	],
	"bufferViews":[
		{
			"buffer":0,
			"byteLength":2136,
			"byteOffset":0,
			"target":34962
		},
		{
			"buffer":0,
			"byteLength":2136,
			"byteOffset":2136,
			"target":34962
		},
		{
			"buffer":0,
			"byteLength":1424,
			"byteOffset":4272,
			"target":34962
		},
		{
			"buffer":0,
			"byteLength":840,
			"byteOffset":5696,
			"target":34963
		}
	],
	"buffers":[
		{
			"byteLength":6536,
			"uri":"shelfBShortShelf.bin"
		}
	]
}
