{
	"asset":{
		"generator":"Khronos glTF Blender I/O v4.0.44",
		"version":"2.0"
	},
	"scene":0,
	"scenes":[
		{
			"name":"Scene",
			"nodes":[
				0,
				1
			]
		}
	],
	"nodes":[
		{
			"mesh":0,
			"name":"shelfBShortInner",
			"rotation":[
				0,
				-0.7071067094802856,
				0,
				0.7071068286895752
			],
			"translation":[
				-0.000762939453125,
				46.32771682739258,
				-2
			]
		},
		{
			"mesh":1,
			"name":"shelfBShortOuter",
			"rotation":[
				0,
				-0.7071067094802856,
				0,
				0.7071068286895752
			],
			"translation":[
				-0.000762939453125,
				45.9835090637207,
				-3.2497711181640625
			]
		}
	],
	"materials":[
		{
			"doubleSided":true,
			"name":"Material",
			"pbrMetallicRoughness":{
				"baseColorFactor":[
					0.800000011920929,
					0.800000011920929,
					0.800000011920929,
					1
				],
				"metallicFactor":0,
				"roughnessFactor":0.5
			}
		}
	],
	"meshes":[
		{
			"name":"ID247",
			"primitives":[
				{
					"attributes":{
						"POSITION":0,
						"NORMAL":1,
						"TEXCOORD_0":2
					},
					"indices":3,
					"material":0
				}
			]
		},
		{
			"name":"ID241",
			"primitives":[
				{
					"attributes":{
						"POSITION":4,
						"NORMAL":5,
						"TEXCOORD_0":6
					},
					"indices":7,
					"material":0
				}
			]
		}
	],
	"accessors":[
		{
			"bufferView":0,
			"componentType":5126,
			"count":36,
			"max":[
				2,
				0.9027776718139648,
				7.25
			],
			"min":[
				-3.25,
				-1.5972223281860352,
				-7.25
			],
			"type":"VEC3"
		},
		{
			"bufferView":1,
			"componentType":5126,
			"count":36,
			"type":"VEC3"
		},
		{
			"bufferView":2,
			"componentType":5126,
			"count":36,
			"type":"VEC2"
		},
		{
			"bufferView":3,
			"componentType":5123,
			"count":60,
			"type":"SCALAR"
		},
		{
			"bufferView":4,
			"componentType":5126,
			"count":178,
			"max":[
				3.2497689723968506,
				1.99698805809021,
				7.999999523162842
			],
			"min":[
				-2.7502310276031494,
				-2.00301194190979,
				-8
			],
			"type":"VEC3"
		},
		{
			"bufferView":5,
			"componentType":5126,
			"count":178,
			"type":"VEC3"
		},
		{
			"bufferView":6,
			"componentType":5126,
			"count":178,
			"type":"VEC2"
		},
		{
			"bufferView":7,
			"componentType":5123,
			"count":420,
			"type":"SCALAR"
		}
	],
	"bufferViews":[
		{
			"buffer":0,
			"byteLength":432,
			"byteOffset":0,
			"target":34962
		},
		{
			"buffer":0,
			"byteLength":432,
			"byteOffset":432,
			"target":34962
		},
		{
			"buffer":0,
			"byteLength":288,
			"byteOffset":864,
			"target":34962
		},
		{
			"buffer":0,
			"byteLength":120,
			"byteOffset":1152,
			"target":34963
		},
		{
			"buffer":0,
			"byteLength":2136,
			"byteOffset":1272,
			"target":34962
		},
		{
			"buffer":0,
			"byteLength":2136,
			"byteOffset":3408,
			"target":34962
		},
		{
			"buffer":0,
			"byteLength":1424,
			"byteOffset":5544,
			"target":34962
		},
		{
			"buffer":0,
			"byteLength":840,
			"byteOffset":6968,
			"target":34963
		}
	],
	"buffers":[
		{
			"byteLength":7808,
			"uri":"shelfB16Shelf.bin"
		}
	]
}
