{
	"asset":{
		"generator":"Khronos glTF Blender I/O v4.0.44",
		"version":"2.0"
	},
	"scene":0,
	"scenes":[
		{
			"name":"Scene",
			"nodes":[
				0,
				1,
				2
			]
		}
	],
	"nodes":[
		{
			"mesh":0,
			"name":"squatterBlockA",
			"translation":[
				0.0002161264419555664,
				14.926182746887207,
				7.255502700805664
			]
		},
		{
			"mesh":1,
			"name":"squatterBlockB",
			"translation":[
				0.0002161264419555664,
				14.926182746887207,
				-7.244497299194336
			]
		},
		{
			"mesh":2,
			"name":"squatterTopPanel",
			"translation":[
				-0.32973992824554443,
				15.022645950317383,
				-0.42073652148246765
			]
		}
	],
	"materials":[
		{
			"doubleSided":true,
			"name":"Material",
			"pbrMetallicRoughness":{
				"baseColorFactor":[
					0.800000011920929,
					0.800000011920929,
					0.800000011920929,
					1
				],
				"metallicFactor":0,
				"roughnessFactor":0.5
			}
		}
	],
	"meshes":[
		{
			"name":"ID100",
			"primitives":[
				{
					"attributes":{
						"POSITION":0,
						"NORMAL":1,
						"TEXCOORD_0":2
					},
					"indices":3,
					"material":0
				}
			]
		},
		{
			"name":"ID106",
			"primitives":[
				{
					"attributes":{
						"POSITION":4,
						"NORMAL":5,
						"TEXCOORD_0":6
					},
					"indices":3,
					"material":0
				}
			]
		},
		{
			"name":"ID82",
			"primitives":[
				{
					"attributes":{
						"POSITION":7,
						"NORMAL":8,
						"TEXCOORD_0":9
					},
					"indices":10,
					"material":0
				}
			]
		}
	],
	"accessors":[
		{
			"bufferView":0,
			"componentType":5126,
			"count":20,
			"max":[
				5.5,
				0.29999998211860657,
				0.25
			],
			"min":[
				-5.5,
				-0.45000001788139343,
				-0.25
			],
			"type":"VEC3"
		},
		{
			"bufferView":1,
			"componentType":5126,
			"count":20,
			"type":"VEC3"
		},
		{
			"bufferView":2,
			"componentType":5126,
			"count":20,
			"type":"VEC2"
		},
		{
			"bufferView":3,
			"componentType":5123,
			"count":30,
			"type":"SCALAR"
		},
		{
			"bufferView":4,
			"componentType":5126,
			"count":20,
			"max":[
				5.5,
				0.29999998211860657,
				0.25
			],
			"min":[
				-5.5,
				-0.45000001788139343,
				-0.25
			],
			"type":"VEC3"
		},
		{
			"bufferView":5,
			"componentType":5126,
			"count":20,
			"type":"VEC3"
		},
		{
			"bufferView":6,
			"componentType":5126,
			"count":20,
			"type":"VEC2"
		},
		{
			"bufferView":7,
			"componentType":5126,
			"count":652,
			"max":[
				6.329958438873291,
				0.9535368084907532,
				8.426241874694824
			],
			"min":[
				-5.670041561126709,
				-0.5464631915092468,
				-7.573758125305176
			],
			"type":"VEC3"
		},
		{
			"bufferView":8,
			"componentType":5126,
			"count":652,
			"type":"VEC3"
		},
		{
			"bufferView":9,
			"componentType":5126,
			"count":652,
			"type":"VEC2"
		},
		{
			"bufferView":10,
			"componentType":5123,
			"count":2343,
			"type":"SCALAR"
		}
	],
	"bufferViews":[
		{
			"buffer":0,
			"byteLength":240,
			"byteOffset":0,
			"target":34962
		},
		{
			"buffer":0,
			"byteLength":240,
			"byteOffset":240,
			"target":34962
		},
		{
			"buffer":0,
			"byteLength":160,
			"byteOffset":480,
			"target":34962
		},
		{
			"buffer":0,
			"byteLength":60,
			"byteOffset":640,
			"target":34963
		},
		{
			"buffer":0,
			"byteLength":240,
			"byteOffset":700,
			"target":34962
		},
		{
			"buffer":0,
			"byteLength":240,
			"byteOffset":940,
			"target":34962
		},
		{
			"buffer":0,
			"byteLength":160,
			"byteOffset":1180,
			"target":34962
		},
		{
			"buffer":0,
			"byteLength":7824,
			"byteOffset":1340,
			"target":34962
		},
		{
			"buffer":0,
			"byteLength":7824,
			"byteOffset":9164,
			"target":34962
		},
		{
			"buffer":0,
			"byteLength":5216,
			"byteOffset":16988,
			"target":34962
		},
		{
			"buffer":0,
			"byteLength":4686,
			"byteOffset":22204,
			"target":34963
		}
	],
	"buffers":[
		{
			"byteLength":26892,
			"uri":"squatterTop.bin"
		}
	]
}
