{
	"asset":{
		"generator":"Khronos glTF Blender I/O v4.0.44",
		"version":"2.0"
	},
	"scene":0,
	"scenes":[
		{
			"name":"Scene",
			"nodes":[
				0
			]
		}
	],
	"nodes":[
		{
			"mesh":0,
			"name":"shelfAShortOuter",
			"rotation":[
				0,
				1,
				0,
				7.549790126404332e-08
			],
			"translation":[
				1.3173065185546875,
				58.10591506958008,
				-0.01831817626953125
			]
		}
	],
	"materials":[
		{
			"doubleSided":true,
			"name":"Material",
			"pbrMetallicRoughness":{
				"baseColorFactor":[
					0.800000011920929,
					0.800000011920929,
					0.800000011920929,
					1
				],
				"metallicFactor":0,
				"roughnessFactor":0.5
			}
		}
	],
	"meshes":[
		{
			"name":"ID271",
			"primitives":[
				{
					"attributes":{
						"POSITION":0,
						"NORMAL":1,
						"TEXCOORD_0":2
					},
					"indices":3,
					"material":0
				}
			]
		}
	],
	"accessors":[
		{
			"bufferView":0,
			"componentType":5126,
			"count":114,
			"max":[
				1.3173019886016846,
				1.874582052230835,
				8.580217361450195
			],
			"min":[
				-2.6826980113983154,
				-2.125417947769165,
				-7.419782638549805
			],
			"type":"VEC3"
		},
		{
			"bufferView":1,
			"componentType":5126,
			"count":114,
			"type":"VEC3"
		},
		{
			"bufferView":2,
			"componentType":5126,
			"count":114,
			"type":"VEC2"
		},
		{
			"bufferView":3,
			"componentType":5123,
			"count":210,
			"type":"SCALAR"
		}
	],
	"bufferViews":[
		{
			"buffer":0,
			"byteLength":1368,
			"byteOffset":0,
			"target":34962
		},
		{
			"buffer":0,
			"byteLength":1368,
			"byteOffset":1368,
			"target":34962
		},
		{
			"buffer":0,
			"byteLength":912,
			"byteOffset":2736,
			"target":34962
		},
		{
			"buffer":0,
			"byteLength":420,
			"byteOffset":3648,
			"target":34963
		}
	],
	"buffers":[
		{
			"byteLength":4068,
			"uri":"shelfAShortShelf.bin"
		}
	]
}
