{
	"asset":{
		"generator":"Khronos glTF Blender I/O v4.0.44",
		"version":"2.0"
	},
	"scene":0,
	"scenes":[
		{
			"name":"Scene",
			"nodes":[
				0,
				1,
				2,
				3,
				4,
				5
			]
		}
	],
	"nodes":[
		{
			"mesh":0,
			"name":"grampsBlockA",
			"translation":[
				-0.041912611573934555,
				17,
				6.053959369659424
			]
		},
		{
			"mesh":1,
			"name":"grampsBlockB",
			"translation":[
				-6.187740802764893,
				16.950000762939453,
				-0.01935180276632309
			]
		},
		{
			"mesh":2,
			"name":"grampsBlockC",
			"translation":[
				-0.00024086126359179616,
				16.950000762939453,
				-6.206843852996826
			]
		},
		{
			"mesh":3,
			"name":"grampsBlockD",
			"translation":[
				6.187259197235107,
				16.950000762939453,
				-0.01935180276632309
			]
		},
		{
			"mesh":4,
			"name":"grampsTopBody",
			"translation":[
				0.017299117520451546,
				17.10236167907715,
				-0.44128021597862244
			]
		},
		{
			"mesh":5,
			"name":"grampsTopPanel",
			"translation":[
				0.035113755613565445,
				18,
				-0.8579901456832886
			]
		}
	],
	"materials":[
		{
			"doubleSided":true,
			"name":"Material",
			"pbrMetallicRoughness":{
				"baseColorFactor":[
					0.800000011920929,
					0.800000011920929,
					0.800000011920929,
					1
				],
				"metallicFactor":0,
				"roughnessFactor":0.5
			}
		}
	],
	"meshes":[
		{
			"name":"ID42",
			"primitives":[
				{
					"attributes":{
						"POSITION":0,
						"NORMAL":1,
						"TEXCOORD_0":2
					},
					"indices":3,
					"material":0
				}
			]
		},
		{
			"name":"ID36",
			"primitives":[
				{
					"attributes":{
						"POSITION":4,
						"NORMAL":5,
						"TEXCOORD_0":6
					},
					"indices":7,
					"material":0
				}
			]
		},
		{
			"name":"ID30",
			"primitives":[
				{
					"attributes":{
						"POSITION":8,
						"NORMAL":9,
						"TEXCOORD_0":10
					},
					"indices":7,
					"material":0
				}
			]
		},
		{
			"name":"ID24",
			"primitives":[
				{
					"attributes":{
						"POSITION":11,
						"NORMAL":12,
						"TEXCOORD_0":13
					},
					"indices":7,
					"material":0
				}
			]
		},
		{
			"name":"ID48",
			"primitives":[
				{
					"attributes":{
						"POSITION":14,
						"NORMAL":15,
						"TEXCOORD_0":16
					},
					"indices":17,
					"material":0
				}
			]
		},
		{
			"name":"ID54",
			"primitives":[
				{
					"attributes":{
						"POSITION":18,
						"NORMAL":19,
						"TEXCOORD_0":20
					},
					"indices":21,
					"material":0
				}
			]
		}
	],
	"accessors":[
		{
			"bufferView":0,
			"componentType":5126,
			"count":24,
			"max":[
				0.29166698455810547,
				0.25,
				0.8641923069953918
			],
			"min":[
				-0.20833301544189453,
				-0.5,
				-0.6358072757720947
			],
			"type":"VEC3"
		},
		{
			"bufferView":1,
			"componentType":5126,
			"count":24,
			"type":"VEC3"
		},
		{
			"bufferView":2,
			"componentType":5126,
			"count":24,
			"type":"VEC2"
		},
		{
			"bufferView":3,
			"componentType":5123,
			"count":42,
			"type":"SCALAR"
		},
		{
			"bufferView":4,
			"componentType":5126,
			"count":20,
			"max":[
				0.75,
				0.29999998211860657,
				0.2500004768371582
			],
			"min":[
				-0.7499995827674866,
				-0.45000001788139343,
				-0.2499995231628418
			],
			"type":"VEC3"
		},
		{
			"bufferView":5,
			"componentType":5126,
			"count":20,
			"type":"VEC3"
		},
		{
			"bufferView":6,
			"componentType":5126,
			"count":20,
			"type":"VEC2"
		},
		{
			"bufferView":7,
			"componentType":5123,
			"count":30,
			"type":"SCALAR"
		},
		{
			"bufferView":8,
			"componentType":5126,
			"count":20,
			"max":[
				0.2499995231628418,
				0.29999998211860657,
				0.7499980926513672
			],
			"min":[
				-0.2500004768371582,
				-0.45000001788139343,
				-0.7500019073486328
			],
			"type":"VEC3"
		},
		{
			"bufferView":9,
			"componentType":5126,
			"count":20,
			"type":"VEC3"
		},
		{
			"bufferView":10,
			"componentType":5126,
			"count":20,
			"type":"VEC2"
		},
		{
			"bufferView":11,
			"componentType":5126,
			"count":20,
			"max":[
				0.75,
				0.29999998211860657,
				0.2500004768371582
			],
			"min":[
				-0.75,
				-0.45000001788139343,
				-0.2499995231628418
			],
			"type":"VEC3"
		},
		{
			"bufferView":12,
			"componentType":5126,
			"count":20,
			"type":"VEC3"
		},
		{
			"bufferView":13,
			"componentType":5126,
			"count":20,
			"type":"VEC2"
		},
		{
			"bufferView":14,
			"componentType":5126,
			"count":133,
			"max":[
				7.717737674713135,
				0.8976377844810486,
				8.157209396362305
			],
			"min":[
				-7.752822399139404,
				-0.6023622155189514,
				-7.313350677490234
			],
			"type":"VEC3"
		},
		{
			"bufferView":15,
			"componentType":5126,
			"count":133,
			"type":"VEC3"
		},
		{
			"bufferView":16,
			"componentType":5126,
			"count":133,
			"type":"VEC2"
		},
		{
			"bufferView":17,
			"componentType":5123,
			"count":255,
			"type":"SCALAR"
		},
		{
			"bufferView":18,
			"componentType":5126,
			"count":18,
			"max":[
				7.512423515319824,
				0,
				8.386422157287598
			],
			"min":[
				-7.583136558532715,
				0,
				-6.709137916564941
			],
			"type":"VEC3"
		},
		{
			"bufferView":19,
			"componentType":5126,
			"count":18,
			"type":"VEC3"
		},
		{
			"bufferView":20,
			"componentType":5126,
			"count":18,
			"type":"VEC2"
		},
		{
			"bufferView":21,
			"componentType":5123,
			"count":42,
			"type":"SCALAR"
		}
	],
	"bufferViews":[
		{
			"buffer":0,
			"byteLength":288,
			"byteOffset":0,
			"target":34962
		},
		{
			"buffer":0,
			"byteLength":288,
			"byteOffset":288,
			"target":34962
		},
		{
			"buffer":0,
			"byteLength":192,
			"byteOffset":576,
			"target":34962
		},
		{
			"buffer":0,
			"byteLength":84,
			"byteOffset":768,
			"target":34963
		},
		{
			"buffer":0,
			"byteLength":240,
			"byteOffset":852,
			"target":34962
		},
		{
			"buffer":0,
			"byteLength":240,
			"byteOffset":1092,
			"target":34962
		},
		{
			"buffer":0,
			"byteLength":160,
			"byteOffset":1332,
			"target":34962
		},
		{
			"buffer":0,
			"byteLength":60,
			"byteOffset":1492,
			"target":34963
		},
		{
			"buffer":0,
			"byteLength":240,
			"byteOffset":1552,
			"target":34962
		},
		{
			"buffer":0,
			"byteLength":240,
			"byteOffset":1792,
			"target":34962
		},
		{
			"buffer":0,
			"byteLength":160,
			"byteOffset":2032,
			"target":34962
		},
		{
			"buffer":0,
			"byteLength":240,
			"byteOffset":2192,
			"target":34962
		},
		{
			"buffer":0,
			"byteLength":240,
			"byteOffset":2432,
			"target":34962
		},
		{
			"buffer":0,
			"byteLength":160,
			"byteOffset":2672,
			"target":34962
		},
		{
			"buffer":0,
			"byteLength":1596,
			"byteOffset":2832,
			"target":34962
		},
		{
			"buffer":0,
			"byteLength":1596,
			"byteOffset":4428,
			"target":34962
		},
		{
			"buffer":0,
			"byteLength":1064,
			"byteOffset":6024,
			"target":34962
		},
		{
			"buffer":0,
			"byteLength":510,
			"byteOffset":7088,
			"target":34963
		},
		{
			"buffer":0,
			"byteLength":216,
			"byteOffset":7600,
			"target":34962
		},
		{
			"buffer":0,
			"byteLength":216,
			"byteOffset":7816,
			"target":34962
		},
		{
			"buffer":0,
			"byteLength":144,
			"byteOffset":8032,
			"target":34962
		},
		{
			"buffer":0,
			"byteLength":84,
			"byteOffset":8176,
			"target":34963
		}
	],
	"buffers":[
		{
			"byteLength":8260,
			"uri":"grampsTop.bin"
		}
	]
}
