{
	"asset":{
		"generator":"Khronos glTF Blender I/O v4.0.44",
		"version":"2.0"
	},
	"extensionsUsed":[
		"KHR_materials_specular",
		"KHR_materials_ior"
	],
	"scene":0,
	"scenes":[
		{
			"name":"Scene",
			"nodes":[
				0,
				1,
				2,
				3,
				4,
				5,
				6,
				7,
				8,
				9,
				10,
				11,
				12
			]
		}
	],
	"nodes":[
		{
			"mesh":0,
			"name":"instance_0",
			"rotation":[
				0.5872329473495483,
				-0.3934311270713806,
				-0.5883697867393494,
				0.3926708996295929
			],
			"translation":[
				-5.6216511726379395,
				-5.773417949676514,
				-2.883328437805176
			]
		},
		{
			"mesh":1,
			"name":"instance_0.001",
			"rotation":[
				0.5872329473495483,
				-0.3934311270713806,
				-0.5883697867393494,
				0.3926708996295929
			],
			"translation":[
				4.89126443862915,
				-5.772645473480225,
				-2.8830089569091797
			]
		},
		{
			"mesh":2,
			"name":"instance_1",
			"rotation":[
				0.5872329473495483,
				-0.3934311270713806,
				-0.5883697867393494,
				0.3926708996295929
			],
			"translation":[
				5.169274806976318,
				4.727245807647705,
				1.4576644897460938
			]
		},
		{
			"mesh":3,
			"name":"instance_1.001",
			"rotation":[
				0.5872329473495483,
				-0.3934311270713806,
				-0.5883697867393494,
				0.3926708996295929
			],
			"translation":[
				-4.235884189605713,
				4.798112392425537,
				1.4869608879089355
			]
		},
		{
			"mesh":4,
			"name":"instance_2",
			"rotation":[
				0.5872329473495483,
				-0.3934311270713806,
				-0.5883697867393494,
				0.3926708996295929
			],
			"translation":[
				2.341663122177124,
				-0.8743225336074829,
				-0.8580334782600403
			]
		},
		{
			"mesh":5,
			"name":"instance_2.001",
			"rotation":[
				0.5872329473495483,
				-0.3934311270713806,
				-0.5883697867393494,
				0.3926708996295929
			],
			"translation":[
				-7.876255512237549,
				-1.590871810913086,
				-1.1542563438415527
			]
		},
		{
			"name":"instance_2.002",
			"rotation":[
				0.5872329473495483,
				-0.3934311270713806,
				-0.5883697867393494,
				0.3926708996295929
			],
			"translation":[
				-8.725679397583008,
				6.256120681762695,
				2.0897045135498047
			]
		},
		{
			"mesh":6,
			"name":"instance_3",
			"rotation":[
				0.5872329473495483,
				-0.3934311270713806,
				-0.5883697867393494,
				0.3926708996295929
			],
			"translation":[
				-2.2326948642730713,
				3.78043794631958,
				1.0662527084350586
			]
		},
		{
			"mesh":7,
			"name":"instance_3.001",
			"rotation":[
				0.5872329473495483,
				-0.3934311270713806,
				-0.5883697867393494,
				0.3926708996295929
			],
			"translation":[
				8.000807762145996,
				4.405329704284668,
				1.3245840072631836
			]
		},
		{
			"mesh":8,
			"name":"instance_4",
			"rotation":[
				0.5872329473495483,
				-0.3934311270713806,
				-0.5883697867393494,
				0.3926708996295929
			],
			"translation":[
				-2.246553659439087,
				-5.564420700073242,
				-2.7969284057617188
			]
		},
		{
			"mesh":9,
			"name":"instance_4.001",
			"rotation":[
				0.5872329473495483,
				-0.3934311270713806,
				-0.5883697867393494,
				0.3926708996295929
			],
			"translation":[
				7.347386837005615,
				-0.44954562187194824,
				-0.6824299693107605
			]
		},
		{
			"mesh":10,
			"name":"instance_5",
			"rotation":[
				0.5872329473495483,
				-0.3934311270713806,
				-0.5883697867393494,
				0.3926708996295929
			],
			"translation":[
				-6.487184047698975,
				-0.47797831892967224,
				-0.6941841244697571
			]
		},
		{
			"mesh":11,
			"name":"instance_5.001",
			"rotation":[
				0.5872329473495483,
				-0.3934311270713806,
				-0.5883697867393494,
				0.3926708996295929
			],
			"translation":[
				7.922238349914551,
				-3.464043140411377,
				-1.9286284446716309
			]
		}
	],
	"materials":[
		{
			"doubleSided":true,
			"extensions":{
				"KHR_materials_specular":{
					"specularFactor":0
				},
				"KHR_materials_ior":{
					"ior":1.4500000476837158
				}
			},
			"name":"_0103_Blue",
			"pbrMetallicRoughness":{
				"baseColorFactor":[
					0.14901959896087646,
					0.384313702583313,
					0.6470587849617004,
					1
				],
				"metallicFactor":0,
				"roughnessFactor":0.5
			}
		}
	],
	"meshes":[
		{
			"name":"ID5",
			"primitives":[
				{
					"attributes":{
						"POSITION":0,
						"NORMAL":1,
						"TEXCOORD_0":2
					},
					"indices":3,
					"material":0
				}
			]
		},
		{
			"name":"ID13",
			"primitives":[
				{
					"attributes":{
						"POSITION":4,
						"NORMAL":5,
						"TEXCOORD_0":6
					},
					"indices":7,
					"material":0
				}
			]
		},
		{
			"name":"ID21",
			"primitives":[
				{
					"attributes":{
						"POSITION":8,
						"NORMAL":9,
						"TEXCOORD_0":10
					},
					"indices":11,
					"material":0
				}
			]
		},
		{
			"name":"ID27",
			"primitives":[
				{
					"attributes":{
						"POSITION":12,
						"NORMAL":13,
						"TEXCOORD_0":14
					},
					"indices":15,
					"material":0
				}
			]
		},
		{
			"name":"ID35",
			"primitives":[
				{
					"attributes":{
						"POSITION":16,
						"NORMAL":17,
						"TEXCOORD_0":18
					},
					"indices":19,
					"material":0
				}
			]
		},
		{
			"name":"ID41",
			"primitives":[
				{
					"attributes":{
						"POSITION":20,
						"NORMAL":21,
						"TEXCOORD_0":22
					},
					"indices":23,
					"material":0
				}
			]
		},
		{
			"name":"ID55",
			"primitives":[
				{
					"attributes":{
						"POSITION":24,
						"NORMAL":25,
						"TEXCOORD_0":26
					},
					"indices":27,
					"material":0
				}
			]
		},
		{
			"name":"ID61",
			"primitives":[
				{
					"attributes":{
						"POSITION":28,
						"NORMAL":29,
						"TEXCOORD_0":30
					},
					"indices":31,
					"material":0
				}
			]
		},
		{
			"name":"ID69",
			"primitives":[
				{
					"attributes":{
						"POSITION":32,
						"NORMAL":33,
						"TEXCOORD_0":34
					},
					"indices":35,
					"material":0
				}
			]
		},
		{
			"name":"ID75",
			"primitives":[
				{
					"attributes":{
						"POSITION":36,
						"NORMAL":37,
						"TEXCOORD_0":38
					},
					"indices":39,
					"material":0
				}
			]
		},
		{
			"name":"ID83",
			"primitives":[
				{
					"attributes":{
						"POSITION":40,
						"NORMAL":41,
						"TEXCOORD_0":42
					},
					"indices":43,
					"material":0
				}
			]
		},
		{
			"name":"ID89",
			"primitives":[
				{
					"attributes":{
						"POSITION":44,
						"NORMAL":45,
						"TEXCOORD_0":46
					},
					"indices":47,
					"material":0
				}
			]
		}
	],
	"accessors":[
		{
			"bufferView":0,
			"componentType":5126,
			"count":28,
			"max":[
				0.7390790581703186,
				0,
				3.8791990280151367
			],
			"min":[
				-0.7609209418296814,
				0,
				-4.870800971984863
			],
			"type":"VEC3"
		},
		{
			"bufferView":1,
			"componentType":5126,
			"count":28,
			"type":"VEC3"
		},
		{
			"bufferView":2,
			"componentType":5126,
			"count":28,
			"type":"VEC2"
		},
		{
			"bufferView":3,
			"componentType":5123,
			"count":72,
			"type":"SCALAR"
		},
		{
			"bufferView":4,
			"componentType":5126,
			"count":48,
			"max":[
				0.7602479457855225,
				0,
				4.142092704772949
			],
			"min":[
				-0.7397520542144775,
				0,
				-4.607907295227051
			],
			"type":"VEC3"
		},
		{
			"bufferView":5,
			"componentType":5126,
			"count":48,
			"type":"VEC3"
		},
		{
			"bufferView":6,
			"componentType":5126,
			"count":48,
			"type":"VEC2"
		},
		{
			"bufferView":7,
			"componentType":5123,
			"count":132,
			"type":"SCALAR"
		},
		{
			"bufferView":8,
			"componentType":5126,
			"count":28,
			"max":[
				0.6225101947784424,
				0,
				4.398127555847168
			],
			"min":[
				-0.8774898052215576,
				0,
				-4.351873397827148
			],
			"type":"VEC3"
		},
		{
			"bufferView":9,
			"componentType":5126,
			"count":28,
			"type":"VEC3"
		},
		{
			"bufferView":10,
			"componentType":5126,
			"count":28,
			"type":"VEC2"
		},
		{
			"bufferView":11,
			"componentType":5123,
			"count":72,
			"type":"SCALAR"
		},
		{
			"bufferView":12,
			"componentType":5126,
			"count":40,
			"max":[
				0.6810024380683899,
				1.776357262916724e-16,
				5.2631683349609375
			],
			"min":[
				-0.8189975619316101,
				-3.3750779525088285e-15,
				-3.5071611404418945
			],
			"type":"VEC3"
		},
		{
			"bufferView":13,
			"componentType":5126,
			"count":40,
			"type":"VEC3"
		},
		{
			"bufferView":14,
			"componentType":5126,
			"count":40,
			"type":"VEC2"
		},
		{
			"bufferView":15,
			"componentType":5123,
			"count":108,
			"type":"SCALAR"
		},
		{
			"bufferView":16,
			"componentType":5126,
			"count":30,
			"max":[
				6.723127365112305,
				0,
				0.832244873046875
			],
			"min":[
				-7.694302558898926,
				0,
				-0.667755126953125
			],
			"type":"VEC3"
		},
		{
			"bufferView":17,
			"componentType":5126,
			"count":30,
			"type":"VEC3"
		},
		{
			"bufferView":18,
			"componentType":5126,
			"count":30,
			"type":"VEC2"
		},
		{
			"bufferView":19,
			"componentType":5123,
			"count":78,
			"type":"SCALAR"
		},
		{
			"bufferView":20,
			"componentType":5126,
			"count":34,
			"max":[
				6.010571479797363,
				0,
				0.8658445477485657
			],
			"min":[
				-8.489428520202637,
				0,
				-0.6341554522514343
			],
			"type":"VEC3"
		},
		{
			"bufferView":21,
			"componentType":5126,
			"count":34,
			"type":"VEC3"
		},
		{
			"bufferView":22,
			"componentType":5126,
			"count":34,
			"type":"VEC2"
		},
		{
			"bufferView":23,
			"componentType":5123,
			"count":90,
			"type":"SCALAR"
		},
		{
			"bufferView":24,
			"componentType":5126,
			"count":38,
			"max":[
				1.8336725234985352,
				0,
				0.7481498718261719
			],
			"min":[
				-2.291327476501465,
				0,
				-0.7518501281738281
			],
			"type":"VEC3"
		},
		{
			"bufferView":25,
			"componentType":5126,
			"count":38,
			"type":"VEC3"
		},
		{
			"bufferView":26,
			"componentType":5126,
			"count":38,
			"type":"VEC2"
		},
		{
			"bufferView":27,
			"componentType":5123,
			"count":102,
			"type":"SCALAR"
		},
		{
			"bufferView":28,
			"componentType":5126,
			"count":60,
			"max":[
				2.5296478271484375,
				0,
				0.7303256988525391
			],
			"min":[
				-1.970352053642273,
				0,
				-0.7696743011474609
			],
			"type":"VEC3"
		},
		{
			"bufferView":29,
			"componentType":5126,
			"count":60,
			"type":"VEC3"
		},
		{
			"bufferView":30,
			"componentType":5126,
			"count":60,
			"type":"VEC2"
		},
		{
			"bufferView":31,
			"componentType":5123,
			"count":168,
			"type":"SCALAR"
		},
		{
			"bufferView":32,
			"componentType":5126,
			"count":50,
			"max":[
				1.6057915687561035,
				0,
				0.7538493871688843
			],
			"min":[
				-2.7782416343688965,
				0,
				-0.7461506128311157
			],
			"type":"VEC3"
		},
		{
			"bufferView":33,
			"componentType":5126,
			"count":50,
			"type":"VEC3"
		},
		{
			"bufferView":34,
			"componentType":5126,
			"count":50,
			"type":"VEC2"
		},
		{
			"bufferView":35,
			"componentType":5123,
			"count":138,
			"type":"SCALAR"
		},
		{
			"bufferView":36,
			"componentType":5126,
			"count":50,
			"max":[
				0.7750179171562195,
				0,
				2.5870676040649414
			],
			"min":[
				-0.7249820828437805,
				0,
				-2.0113821029663086
			],
			"type":"VEC3"
		},
		{
			"bufferView":37,
			"componentType":5126,
			"count":50,
			"type":"VEC3"
		},
		{
			"bufferView":38,
			"componentType":5126,
			"count":50,
			"type":"VEC2"
		},
		{
			"bufferView":39,
			"componentType":5123,
			"count":138,
			"type":"SCALAR"
		},
		{
			"bufferView":40,
			"componentType":5126,
			"count":40,
			"max":[
				0.7174979448318481,
				0,
				2.977381944656372
			],
			"min":[
				-0.7825020551681519,
				0,
				-2.9869678020477295
			],
			"type":"VEC3"
		},
		{
			"bufferView":41,
			"componentType":5126,
			"count":40,
			"type":"VEC3"
		},
		{
			"bufferView":42,
			"componentType":5126,
			"count":40,
			"type":"VEC2"
		},
		{
			"bufferView":43,
			"componentType":5123,
			"count":108,
			"type":"SCALAR"
		},
		{
			"bufferView":44,
			"componentType":5126,
			"count":40,
			"max":[
				4.014206409454346,
				0,
				0.6682262420654297
			],
			"min":[
				-4.735793590545654,
				0,
				-0.8317737579345703
			],
			"type":"VEC3"
		},
		{
			"bufferView":45,
			"componentType":5126,
			"count":40,
			"type":"VEC3"
		},
		{
			"bufferView":46,
			"componentType":5126,
			"count":40,
			"type":"VEC2"
		},
		{
			"bufferView":47,
			"componentType":5123,
			"count":108,
			"type":"SCALAR"
		}
	],
	"bufferViews":[
		{
			"buffer":0,
			"byteLength":336,
			"byteOffset":0,
			"target":34962
		},
		{
			"buffer":0,
			"byteLength":336,
			"byteOffset":336,
			"target":34962
		},
		{
			"buffer":0,
			"byteLength":224,
			"byteOffset":672,
			"target":34962
		},
		{
			"buffer":0,
			"byteLength":144,
			"byteOffset":896,
			"target":34963
		},
		{
			"buffer":0,
			"byteLength":576,
			"byteOffset":1040,
			"target":34962
		},
		{
			"buffer":0,
			"byteLength":576,
			"byteOffset":1616,
			"target":34962
		},
		{
			"buffer":0,
			"byteLength":384,
			"byteOffset":2192,
			"target":34962
		},
		{
			"buffer":0,
			"byteLength":264,
			"byteOffset":2576,
			"target":34963
		},
		{
			"buffer":0,
			"byteLength":336,
			"byteOffset":2840,
			"target":34962
		},
		{
			"buffer":0,
			"byteLength":336,
			"byteOffset":3176,
			"target":34962
		},
		{
			"buffer":0,
			"byteLength":224,
			"byteOffset":3512,
			"target":34962
		},
		{
			"buffer":0,
			"byteLength":144,
			"byteOffset":3736,
			"target":34963
		},
		{
			"buffer":0,
			"byteLength":480,
			"byteOffset":3880,
			"target":34962
		},
		{
			"buffer":0,
			"byteLength":480,
			"byteOffset":4360,
			"target":34962
		},
		{
			"buffer":0,
			"byteLength":320,
			"byteOffset":4840,
			"target":34962
		},
		{
			"buffer":0,
			"byteLength":216,
			"byteOffset":5160,
			"target":34963
		},
		{
			"buffer":0,
			"byteLength":360,
			"byteOffset":5376,
			"target":34962
		},
		{
			"buffer":0,
			"byteLength":360,
			"byteOffset":5736,
			"target":34962
		},
		{
			"buffer":0,
			"byteLength":240,
			"byteOffset":6096,
			"target":34962
		},
		{
			"buffer":0,
			"byteLength":156,
			"byteOffset":6336,
			"target":34963
		},
		{
			"buffer":0,
			"byteLength":408,
			"byteOffset":6492,
			"target":34962
		},
		{
			"buffer":0,
			"byteLength":408,
			"byteOffset":6900,
			"target":34962
		},
		{
			"buffer":0,
			"byteLength":272,
			"byteOffset":7308,
			"target":34962
		},
		{
			"buffer":0,
			"byteLength":180,
			"byteOffset":7580,
			"target":34963
		},
		{
			"buffer":0,
			"byteLength":456,
			"byteOffset":7760,
			"target":34962
		},
		{
			"buffer":0,
			"byteLength":456,
			"byteOffset":8216,
			"target":34962
		},
		{
			"buffer":0,
			"byteLength":304,
			"byteOffset":8672,
			"target":34962
		},
		{
			"buffer":0,
			"byteLength":204,
			"byteOffset":8976,
			"target":34963
		},
		{
			"buffer":0,
			"byteLength":720,
			"byteOffset":9180,
			"target":34962
		},
		{
			"buffer":0,
			"byteLength":720,
			"byteOffset":9900,
			"target":34962
		},
		{
			"buffer":0,
			"byteLength":480,
			"byteOffset":10620,
			"target":34962
		},
		{
			"buffer":0,
			"byteLength":336,
			"byteOffset":11100,
			"target":34963
		},
		{
			"buffer":0,
			"byteLength":600,
			"byteOffset":11436,
			"target":34962
		},
		{
			"buffer":0,
			"byteLength":600,
			"byteOffset":12036,
			"target":34962
		},
		{
			"buffer":0,
			"byteLength":400,
			"byteOffset":12636,
			"target":34962
		},
		{
			"buffer":0,
			"byteLength":276,
			"byteOffset":13036,
			"target":34963
		},
		{
			"buffer":0,
			"byteLength":600,
			"byteOffset":13312,
			"target":34962
		},
		{
			"buffer":0,
			"byteLength":600,
			"byteOffset":13912,
			"target":34962
		},
		{
			"buffer":0,
			"byteLength":400,
			"byteOffset":14512,
			"target":34962
		},
		{
			"buffer":0,
			"byteLength":276,
			"byteOffset":14912,
			"target":34963
		},
		{
			"buffer":0,
			"byteLength":480,
			"byteOffset":15188,
			"target":34962
		},
		{
			"buffer":0,
			"byteLength":480,
			"byteOffset":15668,
			"target":34962
		},
		{
			"buffer":0,
			"byteLength":320,
			"byteOffset":16148,
			"target":34962
		},
		{
			"buffer":0,
			"byteLength":216,
			"byteOffset":16468,
			"target":34963
		},
		{
			"buffer":0,
			"byteLength":480,
			"byteOffset":16684,
			"target":34962
		},
		{
			"buffer":0,
			"byteLength":480,
			"byteOffset":17164,
			"target":34962
		},
		{
			"buffer":0,
			"byteLength":320,
			"byteOffset":17644,
			"target":34962
		},
		{
			"buffer":0,
			"byteLength":216,
			"byteOffset":17964,
			"target":34963
		}
	],
	"buffers":[
		{
			"byteLength":18180,
			"uri":"eliLogo.bin"
		}
	]
}
