{
	"asset":{
		"generator":"Khronos glTF Blender I/O v4.0.44",
		"version":"2.0"
	},
	"scene":0,
	"scenes":[
		{
			"name":"Scene",
			"nodes":[
				0,
				1,
				2,
				3,
				4,
				5
			]
		}
	],
	"nodes":[
		{
			"mesh":0,
			"name":"horseBarInner",
			"rotation":[
				0,
				-0.3826834559440613,
				0,
				0.9238795638084412
			],
			"translation":[
				-0.0003548096865415573,
				29.25,
				-7.83638097345829e-05
			]
		},
		{
			"mesh":1,
			"name":"horseBarTop",
			"rotation":[
				0,
				-0.3826834559440613,
				0,
				0.9238795638084412
			],
			"translation":[
				-0.0003548096865415573,
				31,
				-7.83638097345829e-05
			]
		},
		{
			"mesh":2,
			"name":"horseLegA",
			"rotation":[
				0,
				-0.3826834559440613,
				0,
				0.9238795638084412
			],
			"translation":[
				-7.134174346923828,
				17.700000762939453,
				13.018617630004883
			]
		},
		{
			"mesh":2,
			"name":"horseLegB",
			"rotation":[
				0,
				0.9238795638084412,
				0,
				0.3826834559440613
			],
			"translation":[
				-13.01901626586914,
				17.700000762939453,
				7.133783340454102
			]
		},
		{
			"mesh":2,
			"name":"horseLegC",
			"rotation":[
				0,
				0.9238795638084412,
				0,
				0.3826834559440613
			],
			"translation":[
				7.133480072021484,
				17.700000762939453,
				-13.018762588500977
			]
		},
		{
			"mesh":2,
			"name":"horseLegD",
			"rotation":[
				0,
				-0.3826834559440613,
				0,
				0.9238795638084412
			],
			"translation":[
				13.018321990966797,
				17.700000762939453,
				-7.133920669555664
			]
		}
	],
	"materials":[
		{
			"doubleSided":true,
			"name":"Material",
			"pbrMetallicRoughness":{
				"baseColorFactor":[
					0.800000011920929,
					0.800000011920929,
					0.800000011920929,
					1
				],
				"metallicFactor":0,
				"roughnessFactor":0.5
			}
		}
	],
	"meshes":[
		{
			"name":"ID231",
			"primitives":[
				{
					"attributes":{
						"POSITION":0,
						"NORMAL":1,
						"TEXCOORD_0":2
					},
					"indices":3,
					"material":0
				}
			]
		},
		{
			"name":"ID212",
			"primitives":[
				{
					"attributes":{
						"POSITION":4,
						"NORMAL":5,
						"TEXCOORD_0":6
					},
					"indices":7,
					"material":0
				}
			]
		},
		{
			"name":"ID222",
			"primitives":[
				{
					"attributes":{
						"POSITION":8,
						"NORMAL":9,
						"TEXCOORD_0":10
					},
					"indices":11,
					"material":0
				}
			]
		}
	],
	"accessors":[
		{
			"bufferView":0,
			"componentType":5126,
			"count":48,
			"max":[
				0.75,
				1.75,
				16
			],
			"min":[
				-0.75,
				-1.75,
				-16
			],
			"type":"VEC3"
		},
		{
			"bufferView":1,
			"componentType":5126,
			"count":48,
			"type":"VEC3"
		},
		{
			"bufferView":2,
			"componentType":5126,
			"count":48,
			"type":"VEC2"
		},
		{
			"bufferView":3,
			"componentType":5123,
			"count":72,
			"type":"SCALAR"
		},
		{
			"bufferView":4,
			"componentType":5126,
			"count":96,
			"max":[
				1.75,
				1,
				16
			],
			"min":[
				-1.75,
				-0.5,
				-16
			],
			"type":"VEC3"
		},
		{
			"bufferView":5,
			"componentType":5126,
			"count":96,
			"type":"VEC3"
		},
		{
			"bufferView":6,
			"componentType":5126,
			"count":96,
			"type":"VEC2"
		},
		{
			"bufferView":7,
			"componentType":5123,
			"count":168,
			"type":"SCALAR"
		},
		{
			"bufferView":8,
			"componentType":5126,
			"count":60,
			"max":[
				5.519218444824219,
				12.799999237060547,
				1.7500001192092896
			],
			"min":[
				-3.4112112522125244,
				-17.700000762939453,
				-1.7499998807907104
			],
			"type":"VEC3"
		},
		{
			"bufferView":9,
			"componentType":5126,
			"count":60,
			"type":"VEC3"
		},
		{
			"bufferView":10,
			"componentType":5126,
			"count":60,
			"type":"VEC2"
		},
		{
			"bufferView":11,
			"componentType":5123,
			"count":96,
			"type":"SCALAR"
		}
	],
	"bufferViews":[
		{
			"buffer":0,
			"byteLength":576,
			"byteOffset":0,
			"target":34962
		},
		{
			"buffer":0,
			"byteLength":576,
			"byteOffset":576,
			"target":34962
		},
		{
			"buffer":0,
			"byteLength":384,
			"byteOffset":1152,
			"target":34962
		},
		{
			"buffer":0,
			"byteLength":144,
			"byteOffset":1536,
			"target":34963
		},
		{
			"buffer":0,
			"byteLength":1152,
			"byteOffset":1680,
			"target":34962
		},
		{
			"buffer":0,
			"byteLength":1152,
			"byteOffset":2832,
			"target":34962
		},
		{
			"buffer":0,
			"byteLength":768,
			"byteOffset":3984,
			"target":34962
		},
		{
			"buffer":0,
			"byteLength":336,
			"byteOffset":4752,
			"target":34963
		},
		{
			"buffer":0,
			"byteLength":720,
			"byteOffset":5088,
			"target":34962
		},
		{
			"buffer":0,
			"byteLength":720,
			"byteOffset":5808,
			"target":34962
		},
		{
			"buffer":0,
			"byteLength":480,
			"byteOffset":6528,
			"target":34962
		},
		{
			"buffer":0,
			"byteLength":192,
			"byteOffset":7008,
			"target":34963
		}
	],
	"buffers":[
		{
			"byteLength":7200,
			"uri":"horse.bin"
		}
	]
}
