{
	"asset":{
		"generator":"Khronos glTF Blender I/O v4.0.44",
		"version":"2.0"
	},
	"scene":0,
	"scenes":[
		{
			"name":"Scene",
			"nodes":[
				0,
				1
			]
		}
	],
	"nodes":[
		{
			"mesh":0,
			"name":"shelfBLong",
			"rotation":[
				0,
				1,
				0,
				7.549790126404332e-08
			],
			"translation":[
				-114.98603057861328,
				58.003013610839844,
				-73.7756576538086
			]
		},
		{
			"mesh":1,
			"name":"shelfBLongCleat",
			"rotation":[
				0,
				1,
				0,
				7.549790126404332e-08
			],
			"translation":[
				-117.86079406738281,
				58.0625,
				-73.7756576538086
			]
		}
	],
	"materials":[
		{
			"doubleSided":true,
			"name":"Material",
			"pbrMetallicRoughness":{
				"baseColorFactor":[
					0.800000011920929,
					0.800000011920929,
					0.800000011920929,
					1
				],
				"metallicFactor":0,
				"roughnessFactor":0.5
			}
		}
	],
	"meshes":[
		{
			"name":"ID563",
			"primitives":[
				{
					"attributes":{
						"POSITION":0,
						"NORMAL":1,
						"TEXCOORD_0":2
					},
					"indices":3,
					"material":0
				}
			]
		},
		{
			"name":"ID585",
			"primitives":[
				{
					"attributes":{
						"POSITION":4,
						"NORMAL":5,
						"TEXCOORD_0":6
					},
					"indices":7,
					"material":0
				}
			]
		}
	],
	"accessors":[
		{
			"bufferView":0,
			"componentType":5126,
			"count":179,
			"max":[
				3.2497687339782715,
				1.9969875812530518,
				16.000001907348633
			],
			"min":[
				-2.7502312660217285,
				-2.0030124187469482,
				-15.999998092651367
			],
			"type":"VEC3"
		},
		{
			"bufferView":1,
			"componentType":5126,
			"count":179,
			"type":"VEC3"
		},
		{
			"bufferView":2,
			"componentType":5126,
			"count":179,
			"type":"VEC2"
		},
		{
			"bufferView":3,
			"componentType":5123,
			"count":420,
			"type":"SCALAR"
		},
		{
			"bufferView":4,
			"componentType":5126,
			"count":24,
			"max":[
				0.375,
				0.9375,
				14
			],
			"min":[
				-0.375,
				-0.5625,
				-14
			],
			"type":"VEC3"
		},
		{
			"bufferView":5,
			"componentType":5126,
			"count":24,
			"type":"VEC3"
		},
		{
			"bufferView":6,
			"componentType":5126,
			"count":24,
			"type":"VEC2"
		},
		{
			"bufferView":7,
			"componentType":5123,
			"count":36,
			"type":"SCALAR"
		}
	],
	"bufferViews":[
		{
			"buffer":0,
			"byteLength":2148,
			"byteOffset":0,
			"target":34962
		},
		{
			"buffer":0,
			"byteLength":2148,
			"byteOffset":2148,
			"target":34962
		},
		{
			"buffer":0,
			"byteLength":1432,
			"byteOffset":4296,
			"target":34962
		},
		{
			"buffer":0,
			"byteLength":840,
			"byteOffset":5728,
			"target":34963
		},
		{
			"buffer":0,
			"byteLength":288,
			"byteOffset":6568,
			"target":34962
		},
		{
			"buffer":0,
			"byteLength":288,
			"byteOffset":6856,
			"target":34962
		},
		{
			"buffer":0,
			"byteLength":192,
			"byteOffset":7144,
			"target":34962
		},
		{
			"buffer":0,
			"byteLength":72,
			"byteOffset":7336,
			"target":34963
		}
	],
	"buffers":[
		{
			"byteLength":7408,
			"uri":"shelfBLong.bin"
		}
	]
}
