{
	"asset":{
		"generator":"Khronos glTF Blender I/O v4.0.44",
		"version":"2.0"
	},
	"scene":0,
	"scenes":[
		{
			"name":"Scene",
			"nodes":[
				0,
				1,
				2,
				3,
				4,
				5,
				6,
				7,
				8,
				9
			]
		}
	],
	"nodes":[
		{
			"mesh":0,
			"name":"shelfALongCleat",
			"rotation":[
				0,
				1,
				0,
				7.549790126404332e-08
			],
			"translation":[
				-117.5692138671875,
				45.48049545288086,
				-41.73078918457031
			]
		},
		{
			"mesh":1,
			"name":"shelfALongOuter",
			"rotation":[
				0,
				1,
				0,
				7.549790126404332e-08
			],
			"translation":[
				-114.3192138671875,
				43.98049545288086,
				-41.73078918457031
			]
		},
		{
			"mesh":2,
			"name":"shelfAShortCleat",
			"rotation":[
				0,
				1,
				0,
				7.549790126404332e-08
			],
			"translation":[
				-117.5692138671875,
				57.48049545288086,
				-88.73078918457031
			]
		},
		{
			"mesh":3,
			"name":"shelfAShortOuter",
			"rotation":[
				0,
				1,
				0,
				7.549790126404332e-08
			],
			"translation":[
				-114.3192138671875,
				55.98049545288086,
				-89.73078918457031
			]
		},
		{
			"mesh":4,
			"name":"shelfBLongCleat",
			"rotation":[
				0,
				-0.7071067094802856,
				0,
				0.7071068286895752
			],
			"translation":[
				59.6807861328125,
				57.48049545288086,
				117.51921081542969
			]
		},
		{
			"mesh":5,
			"name":"shelfBLongInner",
			"rotation":[
				0,
				-0.7071067094802856,
				0,
				0.7071068286895752
			],
			"translation":[
				57.6807861328125,
				55.98049545288086,
				112.26921081542969
			]
		},
		{
			"mesh":6,
			"name":"shelfBLongOuter",
			"rotation":[
				0,
				-0.7071067094802856,
				0,
				0.7071068286895752
			],
			"translation":[
				57.6807861328125,
				55.98049545288086,
				112.26921081542969
			]
		},
		{
			"mesh":7,
			"name":"shelfBShortCleat",
			"rotation":[
				0,
				-0.7071067094802856,
				0,
				0.7071068286895752
			],
			"translation":[
				27.6807861328125,
				45.48049545288086,
				117.51921081542969
			]
		},
		{
			"mesh":8,
			"name":"shelfBShortInner",
			"rotation":[
				0,
				-0.7071067094802856,
				0,
				0.7071068286895752
			],
			"translation":[
				25.6807861328125,
				43.98049545288086,
				112.26921081542969
			]
		},
		{
			"mesh":9,
			"name":"shelfBShortOuter",
			"rotation":[
				0,
				-0.7071067094802856,
				0,
				0.7071068286895752
			],
			"translation":[
				25.6807861328125,
				43.98049545288086,
				112.26921081542969
			]
		}
	],
	"materials":[
		{
			"doubleSided":true,
			"name":"Material",
			"pbrMetallicRoughness":{
				"baseColorFactor":[
					0.800000011920929,
					0.800000011920929,
					0.800000011920929,
					1
				],
				"metallicFactor":0,
				"roughnessFactor":0.5
			}
		}
	],
	"meshes":[
		{
			"name":"ID577",
			"primitives":[
				{
					"attributes":{
						"POSITION":0,
						"NORMAL":1,
						"TEXCOORD_0":2
					},
					"indices":3,
					"material":0
				}
			]
		},
		{
			"name":"ID533",
			"primitives":[
				{
					"attributes":{
						"POSITION":4,
						"NORMAL":5,
						"TEXCOORD_0":6
					},
					"indices":7,
					"material":0
				}
			]
		},
		{
			"name":"ID263",
			"primitives":[
				{
					"attributes":{
						"POSITION":8,
						"NORMAL":9,
						"TEXCOORD_0":10
					},
					"indices":3,
					"material":0
				}
			]
		},
		{
			"name":"ID271",
			"primitives":[
				{
					"attributes":{
						"POSITION":11,
						"NORMAL":12,
						"TEXCOORD_0":13
					},
					"indices":14,
					"material":0
				}
			]
		},
		{
			"name":"ID585",
			"primitives":[
				{
					"attributes":{
						"POSITION":15,
						"NORMAL":16,
						"TEXCOORD_0":17
					},
					"indices":3,
					"material":0
				}
			]
		},
		{
			"name":"ID569",
			"primitives":[
				{
					"attributes":{
						"POSITION":18,
						"NORMAL":19,
						"TEXCOORD_0":20
					},
					"indices":21,
					"material":0
				}
			]
		},
		{
			"name":"ID563",
			"primitives":[
				{
					"attributes":{
						"POSITION":22,
						"NORMAL":23,
						"TEXCOORD_0":24
					},
					"indices":25,
					"material":0
				}
			]
		},
		{
			"name":"ID255",
			"primitives":[
				{
					"attributes":{
						"POSITION":26,
						"NORMAL":27,
						"TEXCOORD_0":28
					},
					"indices":3,
					"material":0
				}
			]
		},
		{
			"name":"ID247",
			"primitives":[
				{
					"attributes":{
						"POSITION":29,
						"NORMAL":30,
						"TEXCOORD_0":31
					},
					"indices":32,
					"material":0
				}
			]
		},
		{
			"name":"ID241",
			"primitives":[
				{
					"attributes":{
						"POSITION":33,
						"NORMAL":34,
						"TEXCOORD_0":35
					},
					"indices":36,
					"material":0
				}
			]
		}
	],
	"accessors":[
		{
			"bufferView":0,
			"componentType":5126,
			"count":24,
			"max":[
				0.75,
				1.5,
				12
			],
			"min":[
				0,
				0,
				-12
			],
			"type":"VEC3"
		},
		{
			"bufferView":1,
			"componentType":5126,
			"count":24,
			"type":"VEC3"
		},
		{
			"bufferView":2,
			"componentType":5126,
			"count":24,
			"type":"VEC2"
		},
		{
			"bufferView":3,
			"componentType":5123,
			"count":36,
			"type":"SCALAR"
		},
		{
			"bufferView":4,
			"componentType":5126,
			"count":117,
			"max":[
				4,
				4,
				16
			],
			"min":[
				0,
				0,
				-16
			],
			"type":"VEC3"
		},
		{
			"bufferView":5,
			"componentType":5126,
			"count":117,
			"type":"VEC3"
		},
		{
			"bufferView":6,
			"componentType":5126,
			"count":117,
			"type":"VEC2"
		},
		{
			"bufferView":7,
			"componentType":5123,
			"count":222,
			"type":"SCALAR"
		},
		{
			"bufferView":8,
			"componentType":5126,
			"count":24,
			"max":[
				0.75,
				1.5,
				-2
			],
			"min":[
				0,
				0,
				-12
			],
			"type":"VEC3"
		},
		{
			"bufferView":9,
			"componentType":5126,
			"count":24,
			"type":"VEC3"
		},
		{
			"bufferView":10,
			"componentType":5126,
			"count":24,
			"type":"VEC2"
		},
		{
			"bufferView":11,
			"componentType":5126,
			"count":113,
			"max":[
				4,
				4,
				0
			],
			"min":[
				0,
				0,
				-16
			],
			"type":"VEC3"
		},
		{
			"bufferView":12,
			"componentType":5126,
			"count":113,
			"type":"VEC3"
		},
		{
			"bufferView":13,
			"componentType":5126,
			"count":113,
			"type":"VEC2"
		},
		{
			"bufferView":14,
			"componentType":5123,
			"count":210,
			"type":"SCALAR"
		},
		{
			"bufferView":15,
			"componentType":5126,
			"count":24,
			"max":[
				0.75,
				1.5,
				0
			],
			"min":[
				0,
				0,
				-28
			],
			"type":"VEC3"
		},
		{
			"bufferView":16,
			"componentType":5126,
			"count":24,
			"type":"VEC3"
		},
		{
			"bufferView":17,
			"componentType":5126,
			"count":24,
			"type":"VEC2"
		},
		{
			"bufferView":18,
			"componentType":5126,
			"count":36,
			"max":[
				6,
				3.25,
				-0.75
			],
			"min":[
				0.75,
				0.75,
				-31.25
			],
			"type":"VEC3"
		},
		{
			"bufferView":19,
			"componentType":5126,
			"count":36,
			"type":"VEC3"
		},
		{
			"bufferView":20,
			"componentType":5126,
			"count":36,
			"type":"VEC2"
		},
		{
			"bufferView":21,
			"componentType":5123,
			"count":60,
			"type":"SCALAR"
		},
		{
			"bufferView":22,
			"componentType":5126,
			"count":174,
			"max":[
				6,
				4,
				0
			],
			"min":[
				-2.842170943040401e-14,
				-1.0969000095164758e-13,
				-32
			],
			"type":"VEC3"
		},
		{
			"bufferView":23,
			"componentType":5126,
			"count":174,
			"type":"VEC3"
		},
		{
			"bufferView":24,
			"componentType":5126,
			"count":174,
			"type":"VEC2"
		},
		{
			"bufferView":25,
			"componentType":5123,
			"count":420,
			"type":"SCALAR"
		},
		{
			"bufferView":26,
			"componentType":5126,
			"count":24,
			"max":[
				0.75,
				1.5,
				0
			],
			"min":[
				0,
				0,
				-12
			],
			"type":"VEC3"
		},
		{
			"bufferView":27,
			"componentType":5126,
			"count":24,
			"type":"VEC3"
		},
		{
			"bufferView":28,
			"componentType":5126,
			"count":24,
			"type":"VEC2"
		},
		{
			"bufferView":29,
			"componentType":5126,
			"count":36,
			"max":[
				6,
				3.25,
				-0.75
			],
			"min":[
				0.75,
				0.75,
				-15.25
			],
			"type":"VEC3"
		},
		{
			"bufferView":30,
			"componentType":5126,
			"count":36,
			"type":"VEC3"
		},
		{
			"bufferView":31,
			"componentType":5126,
			"count":36,
			"type":"VEC2"
		},
		{
			"bufferView":32,
			"componentType":5123,
			"count":60,
			"type":"SCALAR"
		},
		{
			"bufferView":33,
			"componentType":5126,
			"count":174,
			"max":[
				6,
				4,
				0
			],
			"min":[
				0,
				0,
				-16
			],
			"type":"VEC3"
		},
		{
			"bufferView":34,
			"componentType":5126,
			"count":174,
			"type":"VEC3"
		},
		{
			"bufferView":35,
			"componentType":5126,
			"count":174,
			"type":"VEC2"
		},
		{
			"bufferView":36,
			"componentType":5123,
			"count":420,
			"type":"SCALAR"
		}
	],
	"bufferViews":[
		{
			"buffer":0,
			"byteLength":288,
			"byteOffset":0,
			"target":34962
		},
		{
			"buffer":0,
			"byteLength":288,
			"byteOffset":288,
			"target":34962
		},
		{
			"buffer":0,
			"byteLength":192,
			"byteOffset":576,
			"target":34962
		},
		{
			"buffer":0,
			"byteLength":72,
			"byteOffset":768,
			"target":34963
		},
		{
			"buffer":0,
			"byteLength":1404,
			"byteOffset":840,
			"target":34962
		},
		{
			"buffer":0,
			"byteLength":1404,
			"byteOffset":2244,
			"target":34962
		},
		{
			"buffer":0,
			"byteLength":936,
			"byteOffset":3648,
			"target":34962
		},
		{
			"buffer":0,
			"byteLength":444,
			"byteOffset":4584,
			"target":34963
		},
		{
			"buffer":0,
			"byteLength":288,
			"byteOffset":5028,
			"target":34962
		},
		{
			"buffer":0,
			"byteLength":288,
			"byteOffset":5316,
			"target":34962
		},
		{
			"buffer":0,
			"byteLength":192,
			"byteOffset":5604,
			"target":34962
		},
		{
			"buffer":0,
			"byteLength":1356,
			"byteOffset":5796,
			"target":34962
		},
		{
			"buffer":0,
			"byteLength":1356,
			"byteOffset":7152,
			"target":34962
		},
		{
			"buffer":0,
			"byteLength":904,
			"byteOffset":8508,
			"target":34962
		},
		{
			"buffer":0,
			"byteLength":420,
			"byteOffset":9412,
			"target":34963
		},
		{
			"buffer":0,
			"byteLength":288,
			"byteOffset":9832,
			"target":34962
		},
		{
			"buffer":0,
			"byteLength":288,
			"byteOffset":10120,
			"target":34962
		},
		{
			"buffer":0,
			"byteLength":192,
			"byteOffset":10408,
			"target":34962
		},
		{
			"buffer":0,
			"byteLength":432,
			"byteOffset":10600,
			"target":34962
		},
		{
			"buffer":0,
			"byteLength":432,
			"byteOffset":11032,
			"target":34962
		},
		{
			"buffer":0,
			"byteLength":288,
			"byteOffset":11464,
			"target":34962
		},
		{
			"buffer":0,
			"byteLength":120,
			"byteOffset":11752,
			"target":34963
		},
		{
			"buffer":0,
			"byteLength":2088,
			"byteOffset":11872,
			"target":34962
		},
		{
			"buffer":0,
			"byteLength":2088,
			"byteOffset":13960,
			"target":34962
		},
		{
			"buffer":0,
			"byteLength":1392,
			"byteOffset":16048,
			"target":34962
		},
		{
			"buffer":0,
			"byteLength":840,
			"byteOffset":17440,
			"target":34963
		},
		{
			"buffer":0,
			"byteLength":288,
			"byteOffset":18280,
			"target":34962
		},
		{
			"buffer":0,
			"byteLength":288,
			"byteOffset":18568,
			"target":34962
		},
		{
			"buffer":0,
			"byteLength":192,
			"byteOffset":18856,
			"target":34962
		},
		{
			"buffer":0,
			"byteLength":432,
			"byteOffset":19048,
			"target":34962
		},
		{
			"buffer":0,
			"byteLength":432,
			"byteOffset":19480,
			"target":34962
		},
		{
			"buffer":0,
			"byteLength":288,
			"byteOffset":19912,
			"target":34962
		},
		{
			"buffer":0,
			"byteLength":120,
			"byteOffset":20200,
			"target":34963
		},
		{
			"buffer":0,
			"byteLength":2088,
			"byteOffset":20320,
			"target":34962
		},
		{
			"buffer":0,
			"byteLength":2088,
			"byteOffset":22408,
			"target":34962
		},
		{
			"buffer":0,
			"byteLength":1392,
			"byteOffset":24496,
			"target":34962
		},
		{
			"buffer":0,
			"byteLength":840,
			"byteOffset":25888,
			"target":34963
		}
	],
	"buffers":[
		{
			"byteLength":26728,
			"uri":"shelfPositions.bin"
		}
	]
}
